<?xml version="1.0" encoding="utf-8"?>
<!-- Generator: Adobe Illustrator 22.1.0, SVG Export Plug-In . SVG Version: 6.00 Build 0)  -->
<svg version="1.1" id="레이어_1" xmlns="http://www.w3.org/2000/svg" xmlns:xlink="http://www.w3.org/1999/xlink" x="0px"
	 y="0px" viewBox="0 0 204 34" style="enable-background:new 0 0 204 34;" xml:space="preserve">
<style type="text/css">
	.st0{fill:#1E1F1F;}
</style>
<g>
	<g>
		<path class="st0" d="M15.8,16.1c-0.4-0.5-0.9-0.9-1.4-1.1c-0.5-0.3-1.1-0.4-1.6-0.5c0.2-0.7,0.4-1.5,0.6-2.3
			c0.1-0.8,0.2-1.7,0.2-2.6c0-0.7-0.1-1.4-0.2-2.2S13,5.7,12.7,5.1L9.4,6.2c0.2,0.4,0.3,0.9,0.5,1.6C10,8.4,10,9,10,9.6
			c0,1.4-0.1,2.7-0.4,3.7c-0.3,1-0.7,2-1.3,2.9c-0.6,0.9-1.3,1.7-2.1,2.5c-0.9,0.8-1.8,1.6-3,2.5l1.9,2.5c1.4-1,2.7-2.1,3.8-3.2
			c1.1-1.1,2-2.2,2.7-3.5c0.3,0.1,0.7,0.3,0.9,0.5c0.3,0.2,0.5,0.4,0.7,0.7c0.4,0.5,1,1.3,1.6,2.4c0.6,1,1.3,2.1,2.1,3.3l2.5-1.8
			c-0.8-1.3-1.5-2.4-2.1-3.4C16.9,17.6,16.3,16.8,15.8,16.1z M22.4,12h-5.2v2.9h5.2v13.9h3.5V4.8h-3.5V12z M47.2,15.3
			c-0.8,0.4-1.6,0.7-2.4,1c-0.8,0.2-1.7,0.4-2.6,0.5c0.4-1.4,0.7-2.9,0.9-4.6c0.2-1.6,0.4-3.2,0.4-4.7c0-0.8-0.2-1.4-0.6-1.8
			c-0.4-0.4-1-0.6-1.9-0.6h-11v2.8h9.4c0.2,0,0.4,0.1,0.6,0.2c0.1,0.1,0.2,0.3,0.2,0.7c0,0.5,0,1.1-0.1,1.8
			c-0.1,0.7-0.1,1.4-0.3,2.1c-0.1,0.7-0.3,1.5-0.4,2.2c-0.2,0.7-0.3,1.4-0.5,2.1H28.5v2.8h6.4v8.8h3.5v-8.8h1.5
			c1.2,0,2.4-0.1,3.7-0.3c1.3-0.2,2.5-0.5,3.6-1.1v10.4h3.4V4.8h-3.4V15.3z M73.7,5.4H55.6v2.8h18.1V5.4z M66.5,18.9h7.3v-2.8h-3.5
			c0.2-0.5,0.4-1,0.5-1.5c0.1-0.5,0.1-1,0.1-1.6V9.4h-3.3v4c0,0.4,0,0.9-0.1,1.4c-0.1,0.5-0.2,1-0.3,1.4h-5.2
			c-0.2-0.5-0.4-0.9-0.4-1.4c-0.1-0.5-0.1-0.9-0.1-1.4v-4h-3.3v3.7c0,0.7,0.1,1.2,0.2,1.7c0.1,0.5,0.3,0.9,0.5,1.3h-3.5v2.8H63v4.4
			h-9.7v2.8h23.1v-2.8h-9.9V18.9z M98.7,4.8h-3.5v23.9h3.5V16.2h4.2v-2.9h-4.2V4.8z M91.8,18.6c-0.3-0.4-0.6-0.8-1-1.1
			c-0.3-0.4-0.6-0.7-0.9-1c-0.4-0.3-0.7-0.6-1-0.8s-0.7-0.4-1.1-0.5c0.8-1.1,1.4-2.2,1.9-3.3c0.5-1.1,0.8-2.2,0.9-3.3
			c0.1-0.8,0-1.5-0.3-2c-0.3-0.5-0.9-0.8-1.7-0.8H78.3v2.8h8.1c0.2,0,0.4,0.1,0.5,0.2C87,9,87,9.2,86.9,9.5c-0.2,1-0.6,2.1-1.2,3.1
			c-0.6,1-1.3,2-2.1,2.9c-0.8,1-1.8,1.9-2.8,2.8c-1.1,0.9-2.2,1.7-3.3,2.5l1.8,2.6c1.3-0.9,2.5-1.8,3.6-2.8c1.1-1,2.2-2,3.2-3.1
			c0.3,0.1,0.6,0.3,0.9,0.5c0.3,0.2,0.5,0.4,0.8,0.6c0.4,0.5,1,1.1,1.8,2c0.7,0.8,1.4,1.7,2.1,2.5l2.2-2.1c-0.3-0.4-0.6-0.8-1-1.2
			C92.5,19.4,92.2,19,91.8,18.6z M115.8,16.6c1.2-0.7,2-1.8,2.6-3V16h4.6V22h3.4V4.5h-3.4v2.3h-4.6v1.6c-0.5-1.2-1.4-2.2-2.5-3
			c-1.2-0.8-2.5-1.2-4.1-1.2c-1,0-1.9,0.2-2.8,0.5c-0.9,0.3-1.6,0.8-2.3,1.4c-0.6,0.6-1.1,1.3-1.5,2.1c-0.4,0.8-0.5,1.7-0.5,2.6
			c0,0.9,0.2,1.8,0.5,2.6c0.3,0.8,0.8,1.5,1.4,2.1c0.6,0.6,1.4,1.1,2.2,1.5c0.9,0.4,1.8,0.5,2.9,0.5
			C113.3,17.7,114.6,17.3,115.8,16.6z M118.9,10.3c0-0.2-0.1-0.5-0.1-0.7h4.2v3.8h-4.5c0.1-0.4,0.2-0.7,0.3-1.1
			c0.1-0.4,0.1-0.8,0.1-1.2C118.9,10.8,118.9,10.5,118.9,10.3z M108.1,11c0-1.1,0.3-2,1-2.7c0.6-0.8,1.6-1.1,2.7-1.1
			c1.2,0,2.1,0.4,2.7,1.1c0.7,0.8,1,1.7,1,2.7c0,1.1-0.3,2-1,2.8c-0.7,0.8-1.6,1.1-2.7,1.1c-1.2,0-2.1-0.4-2.7-1.1
			C108.4,13,108.1,12.1,108.1,11z M123.7,27.4c-1,0.1-2.1,0.2-3.3,0.2h-6.7c-0.3,0-0.5-0.1-0.6-0.2c-0.1-0.1-0.2-0.4-0.2-0.7v-5.9
			h-3.4v6.8c0,1,0.3,1.7,0.9,2.1c0.6,0.5,1.4,0.7,2.4,0.7h7.6c0.8,0,1.5,0,2.1-0.1c0.6,0,1.2-0.1,1.7-0.2c0.5-0.1,1.1-0.2,1.6-0.4
			c0.5-0.1,1.1-0.3,1.8-0.5l-0.7-2.6C125.7,27,124.7,27.2,123.7,27.4z M129,22.9h5.4v6.7h3.4v-6.7h5.4v6.7h3.4v-6.7h5.6v-2.8H129
			V22.9z M133.4,11c-0.2,0.5-0.3,1.1-0.3,1.7c0,0.9,0.2,1.7,0.6,2.4c0.4,0.7,0.9,1.3,1.5,1.8c0.6,0.5,1.4,0.9,2.2,1.1
			c0.9,0.3,1.8,0.4,2.8,0.4c1,0,1.9-0.1,2.8-0.4c0.9-0.3,1.6-0.6,2.3-1.1c0.6-0.5,1.1-1.1,1.5-1.8c0.4-0.7,0.6-1.5,0.6-2.4
			c0-0.6-0.1-1.2-0.3-1.7c-0.2-0.5-0.4-1-0.8-1.5h3.2V6.8h-8c0.2-0.3,0.3-0.6,0.3-1c0.1-0.3,0.1-0.7,0.1-1c0-0.3,0-0.6-0.1-1
			c-0.1-0.4-0.2-0.7-0.3-1.1l-3.5,0.8c0.1,0.2,0.1,0.4,0.2,0.7c0.1,0.3,0.1,0.5,0.2,0.7c0,0.4,0,0.8,0,1.1c-0.1,0.3-0.2,0.5-0.3,0.8
			h-7.2v2.7h3.1C133.8,10,133.5,10.5,133.4,11z M137.4,10.7c0.5-0.6,1.5-1,2.8-1c1.3,0,2.2,0.3,2.8,1c0.6,0.6,0.9,1.3,0.9,2.1
			c0,0.7-0.3,1.4-0.9,2.1s-1.5,0.9-2.8,0.9c-1.3,0-2.3-0.3-2.8-0.9c-0.6-0.6-0.8-1.3-0.8-2.1C136.6,12,136.8,11.3,137.4,10.7z
			 M173.8,4.5h-3.4v11.9c0,0.7-0.1,1.3-0.2,1.8c-0.2,0.5-0.4,0.9-0.8,1.2c-0.5-0.2-1.1-0.4-1.7-0.6c-0.6-0.2-1.2-0.2-1.9-0.2
			c-1,0-1.9,0.2-2.8,0.5c-0.9,0.3-1.6,0.7-2.3,1.3c-0.6,0.6-1.2,1.2-1.5,2c-0.4,0.8-0.6,1.6-0.6,2.6c0,0.9,0.2,1.8,0.6,2.6
			c0.4,0.8,0.9,1.4,1.5,2c0.7,0.6,1.4,1,2.3,1.3s1.8,0.5,2.8,0.5c1,0,1.9-0.2,2.7-0.5c0.9-0.3,1.6-0.7,2.3-1.3
			c0.6-0.6,1.2-1.2,1.5-2c0.4-0.8,0.6-1.6,0.6-2.6c0-0.8-0.1-1.5-0.4-2.2c-0.3-0.7-0.6-1.3-1.1-1.8c0.7-0.5,1.3-1.2,1.7-1.9
			c0.4-0.7,0.6-1.6,0.6-2.6v-0.7h3.9V13h-3.9v-3h3.9V7.2h-3.9V4.5z M168.4,27.6c-0.7,0.6-1.5,1-2.6,1c-1.1,0-2-0.3-2.7-1
			c-0.7-0.7-1-1.5-1-2.6s0.3-2,1-2.6c0.7-0.7,1.6-1,2.7-1c1.1,0,2,0.3,2.6,1c0.7,0.7,1,1.5,1,2.6S169.1,26.9,168.4,27.6z
			 M162.5,16.8c0.8-0.3,1.6-0.7,2.2-1.3c0.6-0.6,1.2-1.2,1.5-2c0.4-0.8,0.6-1.7,0.6-2.7c0-1-0.2-1.9-0.6-2.7c-0.4-0.8-0.9-1.5-1.6-2
			c-0.6-0.5-1.4-1-2.2-1.3c-0.9-0.3-1.7-0.5-2.7-0.5c-0.9,0-1.8,0.1-2.7,0.4c-0.9,0.3-1.6,0.7-2.2,1.3c-0.7,0.6-1.2,1.2-1.5,2
			c-0.4,0.8-0.6,1.7-0.6,2.7c0,1.1,0.2,2,0.6,2.8c0.4,0.8,0.9,1.5,1.5,2c0.6,0.5,1.4,0.9,2.2,1.2c0.8,0.3,1.8,0.4,2.7,0.4
			C160.8,17.2,161.7,17.1,162.5,16.8z M156.2,10.8c0-1,0.3-1.8,1-2.6c0.6-0.7,1.5-1.1,2.7-1.1c1.2,0,2.1,0.4,2.7,1.1
			c0.6,0.7,1,1.6,1,2.6c0,1-0.3,1.9-1,2.6c-0.6,0.7-1.5,1.1-2.7,1.1c-1.1,0-2-0.4-2.7-1.1C156.5,12.7,156.2,11.8,156.2,10.8z
			 M200.8,17V4.5h-3.4v8.8c-1.2,0.7-2.6,1.3-4.1,1.5c-1.5,0.3-2.9,0.4-4.2,0.4h-4.7c-0.3,0-0.5-0.1-0.6-0.2s-0.2-0.4-0.2-0.6v-1.7
			h4.6c0.8,0,1.5-0.1,2.2-0.2c0.7-0.2,1.3-0.4,2-0.7V4.9h-12.2v2.6h8.8v2.5h-8.8v5.1c0,1,0.3,1.7,0.9,2.1c0.6,0.4,1.5,0.6,2.5,0.6
			h5.6c1.4,0,2.8-0.1,4.3-0.4c1.5-0.2,2.8-0.7,3.9-1.2V17c0,0.7-0.1,1.4-0.3,2c-0.2,0.7-0.5,1.2-0.9,1.6h-12.7v7.2
			c0,1.1,0.3,1.9,0.8,2.3c0.5,0.4,1.4,0.6,2.5,0.6h12.1c0.4,0,0.7-0.1,0.9-0.2c0.2-0.1,0.4-0.4,0.4-0.8l0.5-6.7
			c0-0.8-0.1-1.4-0.3-1.8c-0.3-0.4-0.7-0.6-1.2-0.7c0.4-0.4,0.8-0.9,1.2-1.5C200.6,18.5,200.8,17.9,200.8,17z M197.1,27.9H188
			c-0.5,0-0.8-0.1-0.9-0.2c-0.1-0.2-0.2-0.4-0.2-0.8v-3.5h10.2V27.9z"/>
	</g>
</g>
</svg>
