<?xml version="1.0" encoding="utf-8"?>
<!-- Generator: Adobe Illustrator 22.1.0, SVG Export Plug-In . SVG Version: 6.00 Build 0)  -->
<svg version="1.1" id="레이어_1" xmlns="http://www.w3.org/2000/svg" xmlns:xlink="http://www.w3.org/1999/xlink" x="0px"
	 y="0px" viewBox="0 0 194 34" style="enable-background:new 0 0 194 34;" xml:space="preserve">
<style type="text/css">
	.st0{fill:#1E1F1F;}
</style>
<g>
	<g>
		<path class="st0" d="M18,16.3c-0.4-0.5-0.9-0.9-1.4-1.1c-0.5-0.3-1.1-0.4-1.6-0.5c0.2-0.7,0.4-1.5,0.6-2.3
			c0.1-0.8,0.2-1.7,0.2-2.6c0-0.7-0.1-1.4-0.2-2.2c-0.1-0.8-0.4-1.6-0.7-2.2l-3.4,1c0.2,0.3,0.4,0.8,0.5,1.5s0.2,1.3,0.2,1.8
			c0,1.4-0.1,2.7-0.4,3.7c-0.3,1-0.7,2-1.3,2.9C10,17.2,9.3,18,8.4,18.8c-0.9,0.8-1.8,1.6-3,2.5l2,2.5c1.4-1,2.7-2.1,3.8-3.2
			s2-2.2,2.7-3.5c0.3,0.1,0.7,0.3,0.9,0.5c0.3,0.2,0.5,0.4,0.7,0.7c0.4,0.5,1,1.3,1.6,2.4c0.6,1,1.3,2.1,2.1,3.3l2.5-1.8
			c-0.8-1.3-1.5-2.4-2.1-3.4C19.1,17.8,18.5,17,18,16.3z M24.6,12.1h-5.2V15h5.2v13.9H28V5h-3.5v7.1H24.6z M49.4,15.5
			c-0.8,0.4-1.6,0.7-2.4,1c-0.8,0.2-1.7,0.4-2.6,0.5c0.4-1.4,0.7-2.9,0.9-4.6c0.2-1.6,0.4-3.2,0.4-4.7c0-0.8-0.2-1.4-0.6-1.8
			c-0.4-0.4-1-0.6-1.9-0.6h-11v2.8h9.4c0.2,0,0.4,0.1,0.6,0.2c0.1,0.1,0.2,0.3,0.2,0.7c0,0.5,0,1.1-0.1,1.8s-0.1,1.4-0.3,2.1
			c-0.1,0.7-0.3,1.5-0.4,2.2c-0.2,0.7-0.3,1.4-0.5,2.1H30.7V20h6.4v8.8h3.5V20H42c1.2,0,2.4-0.1,3.7-0.3c1.3-0.2,2.5-0.5,3.6-1.1V29
			h3.4V5h-3.4v10.5H49.4z M75.9,5.6H57.8v2.8h18.1V5.6z M68.7,19.1H76v-2.8h-3.5c0.2-0.5,0.4-1,0.5-1.5s0.1-1,0.1-1.6V9.6h-3.3v4
			c0,0.4,0,0.9-0.1,1.4s-0.2,1-0.3,1.4h-5.2c-0.2-0.5-0.4-0.9-0.4-1.4c-0.1-0.5-0.1-0.9-0.1-1.4v-4h-3.3v3.7c0,0.7,0.1,1.2,0.2,1.7
			c0.1,0.5,0.3,0.9,0.5,1.4h-3.5v2.8h7.5v4.4h-9.7v2.8h23.1v-2.8h-9.9v-4.5H68.7z M94.9,18.4c-0.3-0.4-0.7-0.7-1.1-1
			s-0.9-0.5-1.4-0.6c0.9-1.2,1.7-2.4,2.3-3.5c0.6-1.1,0.9-2.1,1-3c0.1-0.6,0-1.2-0.3-1.7s-0.8-0.8-1.6-0.8h-3.4
			c0.3-0.5,0.4-1.1,0.5-1.8C91,5.4,91,4.7,90.8,4.1l-0.2-0.9l-3.2,0.9l0.2,0.7c0.2,0.5,0.2,1,0.2,1.6c-0.1,0.5-0.2,1-0.4,1.4h-4.8
			v2.8h8.8c0.2,0,0.4,0.1,0.5,0.3s0.1,0.4,0,0.8c-0.3,0.8-0.8,1.6-1.4,2.5S89.1,16,88.3,17c-0.9,0.9-1.9,1.8-2.9,2.7
			c-1.1,0.9-2.2,1.7-3.3,2.5l1.8,2.5c1.3-0.8,2.5-1.7,3.7-2.7s2.3-2.1,3.3-3.1c0.4,0.1,0.7,0.3,1,0.5s0.6,0.5,0.9,0.8
			c0.5,0.6,1,1.3,1.5,2c0.5,0.8,1.1,1.6,1.7,2.5l2.4-1.8c-0.5-0.8-1.1-1.6-1.7-2.4C95.9,19.8,95.4,19.1,94.9,18.4z M100.9,28.9h3.5
			V5h-3.5V28.9z M112.5,15.9c1.5,1.2,3.5,1.7,6,1.7s4.5-0.6,5.9-1.7c1.5-1.2,2.2-2.7,2.2-4.7s-0.7-3.6-2.2-4.8s-3.5-1.8-5.9-1.8
			c-2.5,0-4.5,0.6-6,1.8s-2.2,2.8-2.2,4.8C110.3,13.2,111,14.7,112.5,15.9z M115.2,8.3c0.9-0.6,2-0.9,3.3-0.9s2.4,0.3,3.3,0.9
			c0.9,0.6,1.4,1.5,1.4,2.8c0,1.2-0.5,2.2-1.4,2.8c-0.9,0.6-2.1,0.9-3.3,0.9c-1.3,0-2.4-0.3-3.3-0.9c-0.9-0.6-1.4-1.5-1.4-2.8
			C113.9,9.8,114.3,8.9,115.2,8.3z M107.2,22.5h5.4v7.3h3.4v-7.3h5.4v7.3h3.4v-7.3h5.6v-2.8h-23.1v2.8H107.2z M137.4,17.1
			c0.6,0.6,1.4,1.1,2.3,1.4c0.9,0.3,1.9,0.5,3,0.5s2.1-0.2,3-0.5s1.7-0.8,2.3-1.4s1.1-1.3,1.5-2.2c0.4-0.8,0.5-1.8,0.5-2.9
			c0-1-0.2-2-0.6-2.8c-0.4-0.8-0.9-1.6-1.5-2.2s-1.4-1.1-2.3-1.4c-0.9-0.3-1.9-0.5-2.9-0.5c-1.1,0-2.1,0.2-3,0.5S138,6.4,137.4,7
			s-1.1,1.3-1.5,2.2s-0.5,1.8-0.5,2.8c0,1.1,0.2,2,0.5,2.9C136.3,15.7,136.8,16.5,137.4,17.1z M139.9,9c0.7-0.7,1.7-1.1,2.8-1.1
			s2.1,0.4,2.8,1.1s1.1,1.7,1.1,3c0,1.4-0.4,2.4-1.1,3.1c-0.7,0.7-1.7,1-2.8,1s-2.1-0.3-2.8-1s-1.1-1.7-1.1-3.1
			C138.8,10.8,139.2,9.8,139.9,9z M152.9,20.5c-1.2,0.7-2.4,1.2-3.7,1.5s-2.9,0.5-4.8,0.5h-9.9v2.8h9.7c1.8,0,3.4-0.2,4.9-0.5
			s2.7-0.8,3.8-1.4V29h3.5V5h-3.5V20.5z M169,12.6c1.5-0.8,2.7-1.7,3.6-2.8c0.8,0,1.5,0.2,2,0.4s1,0.5,1.5,0.8
			c0.7,0.5,1.4,1,2.3,1.6c0.9,0.6,1.8,1.3,2.8,2l1.8-2.4c-0.9-0.7-1.8-1.3-2.7-2c-0.9-0.6-1.7-1.2-2.4-1.6c-0.4-0.3-1-0.5-1.6-0.7
			s-1.4-0.3-2.2-0.3c0.1-0.3,0.2-0.7,0.3-1s0.1-0.7,0.1-1.1s0-0.7-0.1-1.1s-0.2-0.8-0.3-1.1L170.5,4c0.1,0.2,0.1,0.5,0.2,0.9
			c0,0.3,0.1,0.6,0.1,0.7c0,1.1-0.6,2.2-1.7,3.2c-1.1,1-3,1.9-5.8,2.7l0.8,2.9C165.9,14,167.5,13.3,169,12.6z M184.6,18.3v-2.7
			h-23.1v2.7h9.5V21h-7.1v2.7h2.8v1.8c0,0.5,0,0.9,0.1,1.3s0.2,0.8,0.5,1.4H164v2.7h18.2v-2.7h-3.3c0.2-0.6,0.4-1.1,0.5-1.5
			c0.1-0.5,0.1-0.9,0.1-1.2v-1.6h2.7V21h-7.5v-2.7H184.6z M176.1,23.7v1.8c0,0.4,0,0.9-0.1,1.3s-0.1,0.9-0.2,1.3h-5.3
			c-0.1-0.5-0.2-1-0.2-1.4s-0.1-0.8-0.1-1.2v-1.7L176.1,23.7L176.1,23.7z"/>
	</g>
</g>
</svg>
