<?xml version="1.0" encoding="utf-8"?>
<!-- Generator: Adobe Illustrator 22.1.0, SVG Export Plug-In . SVG Version: 6.00 Build 0)  -->
<svg version="1.1" id="레이어_1" xmlns="http://www.w3.org/2000/svg" xmlns:xlink="http://www.w3.org/1999/xlink" x="0px"
	 y="0px" viewBox="0 0 230 34" style="enable-background:new 0 0 230 34;" xml:space="preserve">
<style type="text/css">
	.st0{fill:#1E1F1F;}
</style>
<g>
	<g>
		<path class="st0" d="M4.7,18h9.5v1.6H6.7v2.6h6.1v1.6H6.7v4.6c0,0.8,0.2,1.4,0.5,1.7c0.3,0.3,0.9,0.5,1.7,0.5h3.6
			c0.6,0,1.1,0,1.5,0c0.4,0,0.9-0.1,1.3-0.1c0.4-0.1,0.8-0.1,1.2-0.2c0.4-0.1,0.8-0.2,1.3-0.4l-0.6-2.5c-0.8,0.2-1.6,0.4-2.3,0.5
			C14,28,13.3,28,12.6,28H9.9v-1.6h4.5c0.3,0,0.5-0.1,0.7-0.2c0.2-0.1,0.3-0.3,0.3-0.6l0.5-3.8v-0.3h0.8v0.8h4.3
			c0.3,0,0.5,0.1,0.7,0.2c0.1,0.1,0.2,0.4,0.2,0.7v7.5h2.9l0.4-8.9c0-0.6-0.1-1.1-0.4-1.5c-0.3-0.4-0.8-0.6-1.7-0.6h-5.4V18h10.1
			v-2.7H4.7V18z M8.6,13.1c0.7,0.4,1.5,0.6,2.6,0.6h6.9c1.1,0,2.2-0.2,3.4-0.6c1.2-0.4,2.2-0.8,3-1.2V4.2h-3.4v2.1H11V4.2H7.6v6.7
			C7.6,11.9,7.9,12.6,8.6,13.1z M11,8.8h10v1.4c-0.6,0.3-1.1,0.5-1.7,0.6C18.8,11,18.3,11,17.7,11h-5.9c-0.3,0-0.5-0.1-0.6-0.2
			c-0.1-0.1-0.2-0.3-0.2-0.6V8.8z M36.1,14.1c0.7,0.5,1.4,0.9,2.3,1.1c0.9,0.3,1.8,0.4,2.8,0.4c1,0,1.9-0.1,2.7-0.4
			c0.9-0.2,1.6-0.6,2.3-1.1c0.6-0.5,1.2-1.1,1.5-1.8c0.4-0.7,0.6-1.6,0.6-2.5c0-1-0.2-1.8-0.6-2.5c-0.4-0.7-0.9-1.3-1.5-1.8
			c-0.7-0.5-1.4-0.9-2.3-1.1C43,4,42.1,3.9,41.1,3.9c-1,0-1.9,0.1-2.8,0.4c-0.9,0.3-1.6,0.6-2.3,1.1c-0.6,0.5-1.2,1.1-1.5,1.8
			C34.2,8,34,8.8,34,9.8c0,1,0.2,1.8,0.6,2.5C34.9,13.1,35.4,13.7,36.1,14.1z M38.4,7.4c0.7-0.6,1.6-0.9,2.7-0.9
			c1.1,0,2,0.3,2.7,0.9c0.7,0.6,1,1.4,1,2.3c0,1-0.3,1.7-1,2.3c-0.7,0.6-1.6,0.9-2.7,0.9c-1.1,0-2-0.3-2.7-0.9
			c-0.7-0.6-1.1-1.4-1.1-2.3C37.4,8.8,37.7,8.1,38.4,7.4z M47.1,27.3c-1,0.2-2.1,0.2-3.2,0.2h-7.1c-0.3,0-0.6-0.1-0.7-0.2
			C36,27.2,36,27,36,26.8v-4.4h-3.5v5.3c0,0.8,0.3,1.5,0.8,2c0.5,0.5,1.3,0.7,2.2,0.7H44c1.4,0,2.6-0.1,3.8-0.3
			c1.1-0.2,2.2-0.5,3.1-0.8l-0.7-2.5C49.1,27,48.1,27.2,47.1,27.3z M29.8,20.4h23.1v-2.8H29.8V20.4z M67.1,18.9
			c1.9-0.3,3.4-1,4.6-2.2c1.2-1.2,1.9-2.8,1.9-4.9c0-1.2-0.2-2.3-0.7-3.2c-0.5-0.9-1.1-1.7-1.8-2.3c-0.8-0.6-1.7-1-2.7-1.3
			c-1-0.3-2.1-0.5-3.3-0.5c-1.2,0-2.3,0.2-3.3,0.5c-1,0.3-1.9,0.8-2.7,1.3c-0.8,0.6-1.4,1.4-1.8,2.3c-0.4,0.9-0.7,2-0.7,3.2
			c0,1.1,0.2,2,0.5,2.9c0.3,0.8,0.8,1.6,1.4,2.2c0.6,0.6,1.3,1.1,2.2,1.4c0.8,0.4,1.7,0.6,2.7,0.7v4.4h-9.8v2.8h23.1v-2.8h-9.8V18.9
			z M61.6,15c-0.9-0.8-1.4-1.9-1.4-3.3c0-1.3,0.5-2.4,1.4-3.2c0.9-0.8,2.1-1.2,3.6-1.2c1.5,0,2.6,0.4,3.6,1.2
			c0.9,0.8,1.4,1.9,1.4,3.2c0,1.4-0.5,2.5-1.4,3.3c-0.9,0.8-2.1,1.2-3.6,1.2C63.7,16.2,62.5,15.8,61.6,15z M95.9,21.6H80.3v6.2
			c0,1.1,0.4,1.9,1.1,2.3c0.7,0.4,1.6,0.6,2.5,0.6H96c0.4,0,0.7-0.1,0.9-0.2c0.2-0.2,0.3-0.4,0.4-0.8l0.5-5.6
			c0.1-0.9-0.1-1.5-0.4-1.9C97.1,21.8,96.6,21.6,95.9,21.6z M94.2,27.9h-9.7c-0.3,0-0.5-0.1-0.7-0.2c-0.1-0.1-0.2-0.4-0.2-0.7v-2.7
			h10.5V27.9z M81.5,14.5c0.5,0.4,1.4,0.6,2.5,0.6h5.7c1.6,0,3.1-0.1,4.5-0.2c1.4-0.1,2.7-0.4,4-0.8l-0.6-2.5
			c-1.4,0.4-2.8,0.6-4.2,0.7c-1.4,0.1-2.7,0.2-4,0.2h-4.6c-0.3,0-0.5,0-0.6-0.2c-0.1-0.1-0.2-0.3-0.2-0.6v-0.9h8.3
			c0.8,0,1.6-0.1,2.4-0.2c0.8-0.1,1.6-0.3,2.4-0.6V4.3H80.7v2.6h13v1.4h-13v4.1C80.7,13.5,80.9,14.2,81.5,14.5z M77.5,19.6h23.1
			v-2.7H77.5V19.6z M123.3,4.8h-3.5v23.9h3.5V16.2h4.2v-2.9h-4.2V4.8z M116.4,18.6c-0.3-0.4-0.6-0.8-1-1.1c-0.3-0.4-0.6-0.7-0.9-1
			c-0.4-0.3-0.7-0.6-1-0.8s-0.7-0.4-1.1-0.5c0.8-1.1,1.4-2.2,1.9-3.3c0.5-1.1,0.8-2.2,0.9-3.3c0.1-0.8,0-1.5-0.3-2
			c-0.3-0.5-0.9-0.8-1.7-0.8h-10.3v2.8h8.1c0.2,0,0.4,0.1,0.5,0.2c0.1,0.1,0.1,0.3,0.1,0.6c-0.2,1-0.6,2.1-1.2,3.1
			c-0.6,1-1.3,2-2.1,2.9c-0.8,1-1.8,1.9-2.8,2.8c-1,0.9-2.2,1.7-3.3,2.5l1.8,2.6c1.3-0.9,2.5-1.8,3.6-2.8c1.1-1,2.2-2,3.2-3.1
			c0.3,0.1,0.6,0.3,0.9,0.5c0.3,0.2,0.5,0.4,0.8,0.6c0.4,0.5,1,1.1,1.8,2c0.7,0.8,1.4,1.7,2.1,2.5l2.2-2.1c-0.3-0.4-0.6-0.8-1-1.2
			C117.1,19.4,116.8,19,116.4,18.6z M148.3,27.4c-1,0.1-2.1,0.2-3.3,0.2h-6.7c-0.3,0-0.5-0.1-0.6-0.2c-0.1-0.1-0.2-0.4-0.2-0.7v-5.9
			H134v6.8c0,1,0.3,1.7,0.9,2.1c0.6,0.5,1.4,0.7,2.4,0.7h7.6c0.8,0,1.5,0,2.1-0.1c0.6,0,1.2-0.1,1.7-0.2c0.5-0.1,1.1-0.2,1.6-0.4
			c0.5-0.1,1.1-0.3,1.8-0.5l-0.7-2.6C150.3,27,149.3,27.2,148.3,27.4z M140.4,16.6c1.2-0.7,2-1.8,2.6-3V16h4.6V22h3.4V4.5h-3.4v2.3
			H143v1.6c-0.5-1.2-1.4-2.2-2.5-3c-1.2-0.8-2.5-1.2-4.1-1.2c-1,0-1.9,0.2-2.8,0.5c-0.9,0.3-1.6,0.8-2.3,1.4
			c-0.6,0.6-1.1,1.3-1.5,2.1c-0.4,0.8-0.5,1.7-0.5,2.6c0,0.9,0.2,1.8,0.5,2.6c0.3,0.8,0.8,1.5,1.4,2.1c0.6,0.6,1.4,1.1,2.2,1.5
			c0.9,0.4,1.8,0.5,2.9,0.5C137.9,17.7,139.2,17.3,140.4,16.6z M143.4,10.3c0-0.2-0.1-0.5-0.1-0.7h4.2v3.8h-4.5
			c0.1-0.4,0.2-0.7,0.3-1.1c0.1-0.4,0.1-0.8,0.1-1.2C143.5,10.8,143.5,10.5,143.4,10.3z M132.7,11c0-1.1,0.3-2,1-2.7
			c0.6-0.8,1.6-1.1,2.7-1.1c1.2,0,2.1,0.4,2.7,1.1c0.7,0.8,1,1.7,1,2.7c0,1.1-0.3,2-1,2.8c-0.7,0.8-1.6,1.1-2.7,1.1
			c-1.2,0-2.1-0.4-2.7-1.1C133,13,132.7,12.1,132.7,11z M158,11c-0.2,0.5-0.3,1.1-0.3,1.7c0,0.9,0.2,1.7,0.6,2.4
			c0.4,0.7,0.9,1.3,1.5,1.8c0.6,0.5,1.4,0.9,2.2,1.1c0.9,0.3,1.8,0.4,2.8,0.4c1,0,1.9-0.1,2.8-0.4c0.9-0.3,1.6-0.6,2.3-1.1
			c0.6-0.5,1.1-1.1,1.5-1.8c0.4-0.7,0.6-1.5,0.6-2.4c0-0.6-0.1-1.2-0.3-1.7c-0.2-0.5-0.4-1-0.8-1.5h3.2V6.8h-8
			c0.2-0.3,0.3-0.6,0.3-1c0.1-0.3,0.1-0.7,0.1-1c0-0.3,0-0.6-0.1-1c-0.1-0.4-0.2-0.7-0.3-1.1l-3.5,0.8c0.1,0.2,0.1,0.4,0.2,0.7
			c0.1,0.3,0.1,0.5,0.2,0.7c0,0.4,0,0.8,0,1.1c-0.1,0.3-0.1,0.5-0.3,0.8h-7.2v2.7h3.1C158.4,10,158.1,10.5,158,11z M162,10.7
			c0.5-0.6,1.5-1,2.8-1c1.3,0,2.2,0.3,2.8,1c0.6,0.6,0.9,1.3,0.9,2.1c0,0.7-0.3,1.4-0.9,2.1s-1.5,0.9-2.8,0.9
			c-1.3,0-2.3-0.3-2.8-0.9c-0.6-0.6-0.8-1.3-0.8-2.1C161.1,12,161.4,11.3,162,10.7z M153.6,22.9h5.4v6.7h3.4v-6.7h5.4v6.7h3.4v-6.7
			h5.6v-2.8h-23.1V22.9z M187.1,16.8c0.8-0.3,1.6-0.7,2.2-1.3c0.6-0.6,1.2-1.2,1.5-2c0.4-0.8,0.6-1.7,0.6-2.7c0-1-0.2-1.9-0.6-2.7
			c-0.4-0.8-0.9-1.5-1.6-2c-0.6-0.5-1.4-1-2.2-1.3c-0.9-0.3-1.7-0.5-2.7-0.5c-0.9,0-1.8,0.1-2.7,0.4c-0.9,0.3-1.6,0.7-2.2,1.3
			c-0.7,0.6-1.2,1.2-1.5,2c-0.4,0.8-0.6,1.7-0.6,2.7c0,1.1,0.2,2,0.6,2.8c0.4,0.8,0.9,1.5,1.5,2c0.6,0.5,1.4,0.9,2.2,1.2
			c0.8,0.3,1.8,0.4,2.7,0.4C185.4,17.2,186.3,17.1,187.1,16.8z M180.8,10.8c0-1,0.3-1.8,1-2.6c0.6-0.7,1.5-1.1,2.7-1.1
			c1.2,0,2.1,0.4,2.7,1.1c0.6,0.7,1,1.6,1,2.6c0,1-0.3,1.9-1,2.6c-0.6,0.7-1.5,1.1-2.7,1.1c-1.1,0-2-0.4-2.7-1.1
			C181.1,12.7,180.8,11.8,180.8,10.8z M198.4,4.5H195v11.9c0,0.7-0.1,1.3-0.2,1.8c-0.2,0.5-0.4,0.9-0.8,1.2
			c-0.5-0.2-1.1-0.4-1.7-0.6c-0.6-0.2-1.2-0.2-1.9-0.2c-1,0-1.9,0.2-2.8,0.5c-0.9,0.3-1.6,0.7-2.3,1.3c-0.6,0.6-1.2,1.2-1.5,2
			c-0.4,0.8-0.6,1.6-0.6,2.6c0,0.9,0.2,1.8,0.6,2.6c0.4,0.8,0.9,1.4,1.5,2c0.7,0.6,1.4,1,2.3,1.3s1.8,0.5,2.8,0.5
			c1,0,1.9-0.2,2.7-0.5c0.9-0.3,1.6-0.7,2.3-1.3c0.6-0.6,1.2-1.2,1.5-2c0.4-0.8,0.6-1.6,0.6-2.6c0-0.8-0.1-1.5-0.4-2.2
			c-0.3-0.7-0.6-1.3-1.1-1.8c0.7-0.5,1.3-1.2,1.7-1.9c0.4-0.7,0.6-1.6,0.6-2.6v-0.7h3.9V13h-3.9v-3h3.9V7.2h-3.9V4.5z M193,27.6
			c-0.7,0.6-1.5,1-2.6,1c-1.1,0-2-0.3-2.7-1c-0.7-0.7-1-1.5-1-2.6s0.3-2,1-2.6c0.7-0.7,1.6-1,2.7-1c1.1,0,2,0.3,2.6,1
			c0.7,0.7,1,1.5,1,2.6S193.7,26.9,193,27.6z M225.3,17V4.5h-3.4v8.8c-1.2,0.7-2.6,1.3-4.1,1.5c-1.5,0.3-2.9,0.4-4.2,0.4h-4.7
			c-0.3,0-0.5-0.1-0.6-0.2s-0.2-0.4-0.2-0.6v-1.7h4.6c0.8,0,1.5-0.1,2.2-0.2c0.7-0.2,1.3-0.4,2-0.7V4.9h-12.2v2.6h8.8v2.5h-8.8v5.1
			c0,1,0.3,1.7,0.9,2.1c0.6,0.4,1.5,0.6,2.5,0.6h5.6c1.4,0,2.8-0.1,4.3-0.4c1.5-0.2,2.8-0.7,3.9-1.2V17c0,0.7-0.1,1.4-0.3,2
			c-0.2,0.7-0.5,1.2-0.9,1.6h-12.7v7.2c0,1.1,0.3,1.9,0.8,2.3c0.5,0.4,1.4,0.6,2.5,0.6h12.1c0.4,0,0.7-0.1,0.9-0.2
			c0.2-0.1,0.4-0.4,0.4-0.8l0.5-6.7c0-0.8-0.1-1.4-0.3-1.8c-0.3-0.4-0.7-0.6-1.2-0.7c0.4-0.4,0.8-0.9,1.2-1.5
			C225.2,18.5,225.3,17.9,225.3,17z M221.7,27.9h-9.1c-0.5,0-0.8-0.1-0.9-0.2c-0.1-0.2-0.2-0.4-0.2-0.8v-3.5h10.2V27.9z"/>
	</g>
</g>
</svg>
