<?xml version="1.0" encoding="utf-8"?>
<!-- Generator: Adobe Illustrator 22.1.0, SVG Export Plug-In . SVG Version: 6.00 Build 0)  -->
<svg version="1.1" id="레이어_1" xmlns="http://www.w3.org/2000/svg" xmlns:xlink="http://www.w3.org/1999/xlink" x="0px"
	 y="0px" viewBox="0 0 102 34" style="enable-background:new 0 0 102 34;" xml:space="preserve">
<style type="text/css">
	.st0{fill:#FFFFFF;}
</style>
<g>
	<g>
		<path class="st0" d="M17.7,6.5c0.1,0.1,0.1,0.3,0.1,0.6c0,1-0.1,1.8-0.1,2.7c-0.1,0.8-0.3,1.8-0.5,3l3,0.4
			c0.3-1.2,0.5-2.4,0.7-3.6C21.1,8.2,21.2,7,21.2,6c0-0.9-0.2-1.5-0.7-1.8c-0.4-0.3-1.1-0.5-1.9-0.5H4.3v2.7h12.9
			C17.5,6.3,17.6,6.4,17.7,6.5z M12.4,9.8H9v4.4H1.4v2.7h23.1v-2.7H12.4V9.8z M17.7,20c-0.7-0.5-1.4-0.9-2.3-1.2
			c-0.9-0.3-1.8-0.4-2.8-0.4c-1,0-1.9,0.1-2.8,0.4c-0.9,0.3-1.6,0.7-2.3,1.2c-0.6,0.5-1.2,1.2-1.5,1.9c-0.4,0.8-0.6,1.6-0.6,2.5
			c0,0.9,0.2,1.8,0.6,2.5c0.4,0.8,0.9,1.4,1.5,1.9c0.7,0.5,1.4,0.9,2.3,1.2c0.9,0.3,1.8,0.4,2.8,0.4c1,0,1.9-0.1,2.7-0.4
			c0.9-0.3,1.6-0.7,2.3-1.2c0.6-0.5,1.2-1.2,1.5-1.9c0.4-0.7,0.6-1.6,0.6-2.5c0-0.9-0.2-1.8-0.6-2.5C18.9,21.2,18.4,20.5,17.7,20z
			 M15.4,26.9c-0.7,0.6-1.6,0.9-2.7,0.9c-1.1,0-2-0.3-2.7-0.9C9.3,26.3,9,25.5,9,24.5c0-1,0.3-1.9,1.1-2.4c0.7-0.6,1.6-0.9,2.7-0.9
			c1.1,0,2,0.3,2.7,0.9c0.7,0.6,1,1.4,1,2.4C16.4,25.5,16.1,26.3,15.4,26.9z M45.2,26.6c-1,0.1-2.1,0.2-3.3,0.2h-6.7
			c-0.3,0-0.5-0.1-0.6-0.2c-0.1-0.1-0.2-0.4-0.2-0.7V20H31v6.8c0,1,0.3,1.7,0.9,2.1c0.6,0.5,1.4,0.7,2.4,0.7h7.6
			c0.8,0,1.5,0,2.1-0.1c0.6,0,1.2-0.1,1.7-0.2c0.5-0.1,1.1-0.2,1.6-0.4c0.5-0.1,1.1-0.3,1.8-0.5l-0.7-2.6
			C47.3,26.2,46.2,26.4,45.2,26.6z M37.3,15.8c1.2-0.8,2-1.8,2.6-3v2.5h4.6v5.9h3.4V3.7h-3.4v2.3h-4.6v1.6c-0.5-1.2-1.4-2.2-2.5-3
			c-1.2-0.8-2.5-1.2-4.1-1.2c-1,0-1.9,0.2-2.8,0.5c-0.9,0.3-1.6,0.8-2.3,1.4c-0.6,0.6-1.1,1.3-1.5,2.1c-0.4,0.8-0.5,1.7-0.5,2.6
			c0,0.9,0.2,1.8,0.5,2.6c0.3,0.8,0.8,1.5,1.4,2.1c0.6,0.6,1.4,1.1,2.2,1.5c0.9,0.4,1.8,0.5,2.9,0.5C34.8,16.9,36.2,16.5,37.3,15.8z
			 M40.4,9.5c0-0.2-0.1-0.5-0.1-0.7h4.2v3.8H40c0.1-0.4,0.2-0.7,0.3-1.1c0.1-0.4,0.1-0.8,0.1-1.2C40.4,10,40.4,9.7,40.4,9.5z
			 M29.6,10.2c0-1.1,0.3-2,1-2.7c0.6-0.8,1.6-1.1,2.7-1.1c1.2,0,2.1,0.4,2.7,1.1c0.7,0.8,1,1.7,1,2.7c0,1.1-0.3,2-1,2.8
			c-0.7,0.8-1.6,1.1-2.7,1.1c-1.2,0-2.1-0.4-2.7-1.1C29.9,12.2,29.6,11.3,29.6,10.2z M65.5,7.8h-4c-0.5-0.8-1.2-1.4-2-1.8
			c-0.8-0.5-1.8-0.7-2.8-0.7c-2,0-3.6,0.7-4.6,2.2c-1,1.4-1.6,3.3-1.6,5.7c0,2.4,0.5,4.3,1.5,5.7c1,1.4,2.6,2.1,4.6,2.1
			c1.1,0,2-0.2,2.8-0.6c0.8-0.4,1.5-1,2-1.8h4.1v8.8h3.2V4h-3.2V7.8z M59.5,15c-0.1,0.6-0.3,1.1-0.5,1.6c-0.2,0.5-0.6,0.8-0.9,1.1
			c-0.4,0.3-0.9,0.4-1.4,0.4c-0.6,0-1.1-0.1-1.4-0.4c-0.4-0.3-0.7-0.6-0.9-1.1c-0.2-0.5-0.4-1-0.5-1.6c-0.1-0.6-0.1-1.2-0.1-1.9
			c0-0.7,0-1.3,0.1-1.9c0.1-0.6,0.3-1.1,0.5-1.6c0.2-0.5,0.5-0.8,0.9-1.1c0.4-0.3,0.9-0.4,1.4-0.4c0.6,0,1,0.1,1.4,0.4
			c0.4,0.3,0.7,0.7,0.9,1.1c0.2,0.5,0.4,1,0.5,1.6c0.1,0.6,0.2,1.2,0.2,1.9C59.6,13.8,59.6,14.4,59.5,15z M65.5,15.7h-3
			c0.1-0.4,0.1-0.8,0.2-1.2c0-0.4,0.1-0.9,0.1-1.4c0-0.4,0-0.8-0.1-1.3c-0.1-0.4-0.1-0.8-0.2-1.2h3V15.7z M71,27.9h3.3V4H71V27.9z
			 M77.2,19.9c0,0.9,0.3,1.6,0.8,2c0.5,0.4,1.2,0.6,2.1,0.6h3.1c1.1,0,2-0.2,2.8-0.6c0.8-0.4,1.7-0.9,2.5-1.5V5H77.2V19.9z
			 M80.4,7.9h4.9v10.8c-0.2,0.3-0.6,0.5-1.1,0.7c-0.5,0.2-0.9,0.2-1.1,0.2H81c-0.2,0-0.4-0.1-0.5-0.2c-0.1-0.1-0.1-0.3-0.1-0.5V7.9z
			 M97.4,4v8.6h-3.1V4h-3.2v23.3h3.2V15.5h3.1v12.4h3.2V4H97.4z"/>
	</g>
</g>
</svg>
