<?xml version="1.0" encoding="utf-8"?>
<!-- Generator: Adobe Illustrator 22.1.0, SVG Export Plug-In . SVG Version: 6.00 Build 0)  -->
<svg version="1.1" id="레이어_1" xmlns="http://www.w3.org/2000/svg" xmlns:xlink="http://www.w3.org/1999/xlink" x="0px"
	 y="0px" viewBox="0 0 80 40" style="enable-background:new 0 0 80 40;" xml:space="preserve">
<style type="text/css">
	.st0{fill:#FFFFFF;}
	.st1{fill:#1E1F1F;}
</style>
<circle class="st0" cx="38.1" cy="20" r="17.5"/>
<g>
	<g>
		<path class="st1" d="M9.3,15.1H6.7v3.4H0.9v2.1h17.6v-2.1H9.3V15.1z M13.4,23c-0.5-0.4-1.1-0.7-1.7-0.9c-0.7-0.2-1.4-0.3-2.1-0.3
			c-0.7,0-1.4,0.1-2.1,0.3c-0.7,0.2-1.2,0.5-1.7,0.9c-0.5,0.4-0.9,0.9-1.2,1.5c-0.3,0.6-0.4,1.2-0.4,2c0,0.7,0.1,1.4,0.4,2
			c0.3,0.6,0.7,1.1,1.2,1.5c0.5,0.4,1.1,0.7,1.7,0.9c0.7,0.2,1.4,0.3,2.1,0.3c0.7,0,1.4-0.1,2.1-0.3c0.7-0.2,1.2-0.5,1.7-0.9
			c0.5-0.4,0.9-0.9,1.2-1.5c0.3-0.6,0.4-1.2,0.4-2c0-0.7-0.1-1.4-0.4-2C14.2,23.9,13.9,23.4,13.4,23z M11.6,28.3
			c-0.5,0.5-1.2,0.7-2,0.7c-0.8,0-1.5-0.2-2.1-0.7c-0.5-0.5-0.8-1.1-0.8-1.9c0-0.8,0.3-1.4,0.8-1.9c0.5-0.5,1.2-0.7,2.1-0.7
			c0.8,0,1.5,0.2,2,0.7c0.5,0.5,0.8,1.1,0.8,1.9C12.4,27.2,12.1,27.9,11.6,28.3z M13.4,12.5c0.1,0.1,0.1,0.2,0.1,0.5
			c0,0.7,0,1.4-0.1,2.1c-0.1,0.6-0.2,1.4-0.4,2.3l2.3,0.3c0.2-0.9,0.4-1.9,0.5-2.8c0.1-1,0.2-1.9,0.2-2.7c0-0.7-0.2-1.2-0.5-1.4
			c-0.3-0.3-0.8-0.4-1.4-0.4H3.2v2.1H13C13.2,12.4,13.3,12.4,13.4,12.5z M29.9,19.8c-0.3-0.4-0.6-0.7-1-0.8
			c-0.3-0.2-0.8-0.3-1.3-0.4c0.5-0.8,1-1.6,1.4-2.5c0.4-0.8,0.6-1.6,0.7-2.4c0.1-0.6,0-1.2-0.3-1.6c-0.2-0.4-0.7-0.7-1.3-0.7h-7.8
			v2.2h6.2c0.2,0,0.3,0.1,0.4,0.2c0.1,0.1,0.1,0.3,0.1,0.5c-0.2,0.8-0.5,1.5-0.9,2.3c-0.4,0.8-1,1.6-1.7,2.3
			c-0.7,0.8-1.4,1.5-2.2,2.2c-0.8,0.7-1.7,1.4-2.6,2l1.4,2c1-0.7,2-1.5,2.9-2.3c0.9-0.8,1.8-1.7,2.5-2.5c0.4,0.1,0.7,0.2,1,0.4
			c0.3,0.2,0.6,0.4,0.8,0.7c0.3,0.4,0.7,1,1.2,1.6c0.5,0.7,0.9,1.4,1.4,2.1l1.8-1.4c-0.4-0.7-0.9-1.3-1.3-2
			C30.7,20.9,30.3,20.3,29.9,19.8z M34,29.1h2.6V10.6H34V29.1z M48.4,19.1c-0.3-0.4-0.6-0.7-1-0.9c-0.4-0.2-0.8-0.4-1.3-0.4
			c0.2-0.6,0.3-1.2,0.4-1.9c0.1-0.7,0.2-1.4,0.2-2.1c0-0.5,0-1-0.1-1.5c-0.1-0.5-0.3-1-0.5-1.5l-2.5,0.9c0.1,0.3,0.3,0.6,0.4,1
			C43.9,13,44,13.5,44,14c0,1-0.1,2-0.3,2.8c-0.2,0.8-0.5,1.6-0.9,2.4c-0.4,0.7-1,1.4-1.6,2.1c-0.6,0.7-1.4,1.3-2.3,2l1.5,1.9
			c1.1-0.8,2-1.6,2.9-2.5c0.8-0.9,1.5-1.9,2.1-2.9c0.3,0.1,0.5,0.2,0.7,0.4c0.2,0.2,0.4,0.3,0.6,0.5c0.3,0.4,0.7,1,1.2,1.8
			c0.5,0.8,1,1.7,1.6,2.6l1.9-1.4c-0.6-1-1.1-1.9-1.6-2.6C49.2,20.3,48.8,19.6,48.4,19.1z M55.3,10.6h-2.6v18.6h2.6v-9.5h3.2v-2.2
			h-3.2V10.6z M75.9,15.2v-4.8h-2.6v9.4c0,0.6-0.1,1.1-0.2,1.5c-0.1,0.4-0.4,0.7-0.7,1c-0.4-0.2-0.8-0.3-1.3-0.4
			c-0.4-0.1-0.9-0.1-1.4-0.1c-0.7,0-1.4,0.1-2.1,0.3c-0.7,0.2-1.2,0.5-1.7,0.9c-0.5,0.4-0.9,0.9-1.2,1.5c-0.3,0.6-0.4,1.2-0.4,2
			c0,0.7,0.1,1.4,0.4,2c0.3,0.6,0.7,1.1,1.2,1.5c0.5,0.4,1.1,0.7,1.7,0.9c0.7,0.2,1.4,0.3,2.1,0.3c0.7,0,1.4-0.1,2.1-0.3
			c0.7-0.2,1.2-0.5,1.7-0.9c0.5-0.4,0.9-0.9,1.2-1.5c0.3-0.6,0.4-1.2,0.4-2c0-0.6-0.1-1.2-0.3-1.7c-0.2-0.5-0.5-1-0.9-1.4
			c0.6-0.4,1-0.9,1.4-1.5c0.3-0.6,0.5-1.3,0.5-2.1v-2.5h3.2v-2.1H75.9z M71.8,28.3c-0.5,0.4-1.2,0.7-2,0.7c-0.8,0-1.5-0.2-2-0.7
			c-0.5-0.4-0.8-1.1-0.8-1.9c0-0.8,0.3-1.4,0.8-1.9s1.2-0.7,2-0.7c0.8,0,1.5,0.2,2,0.7c0.5,0.5,0.8,1.1,0.8,1.9
			C72.6,27.3,72.3,27.9,71.8,28.3z M67.6,20.4c0.6-0.2,1.1-0.5,1.6-0.9c0.4-0.4,0.8-0.8,1-1.4c0.2-0.5,0.4-1.1,0.4-1.7
			c0-0.4-0.1-0.8-0.2-1.2c-0.1-0.4-0.3-0.8-0.5-1.1h1.7v-2.1h-5c0.1-0.2,0.2-0.5,0.3-0.8c0.1-0.3,0.1-0.6,0.1-0.9
			c0-0.2,0-0.5-0.1-0.7c-0.1-0.2-0.1-0.5-0.2-0.7L64,9.7c0,0.1,0.1,0.3,0.1,0.5c0,0.2,0.1,0.3,0.1,0.4c0,0.3,0,0.6,0,0.8
			c0,0.2-0.1,0.4-0.2,0.6h-4.3V14h1.6c-0.2,0.3-0.4,0.7-0.5,1.1c-0.1,0.4-0.2,0.8-0.2,1.2c0,0.6,0.1,1.2,0.3,1.7
			c0.2,0.5,0.6,1,1,1.4c0.4,0.4,0.9,0.7,1.6,0.9c0.6,0.2,1.3,0.3,2.1,0.3C66.3,20.7,67,20.6,67.6,20.4z M63.2,16.4
			c0-0.6,0.2-1.1,0.6-1.5c0.4-0.4,1-0.7,1.8-0.7c0.8,0,1.4,0.2,1.8,0.7c0.4,0.4,0.6,1,0.6,1.5c0,0.6-0.2,1.1-0.6,1.6
			c-0.4,0.4-1,0.7-1.8,0.7c-0.8,0-1.4-0.2-1.8-0.7C63.4,17.5,63.2,17,63.2,16.4z"/>
	</g>
</g>
</svg>
