<?xml version="1.0" encoding="utf-8"?>
<!-- Generator: Adobe Illustrator 22.1.0, SVG Export Plug-In . SVG Version: 6.00 Build 0)  -->
<svg version="1.1" id="레이어_1" xmlns="http://www.w3.org/2000/svg" xmlns:xlink="http://www.w3.org/1999/xlink" x="0px"
	 y="0px" viewBox="0 0 315 93" style="enable-background:new 0 0 315 93;" xml:space="preserve">
<style type="text/css">
	.st0{fill:#1E1F1F;}
</style>
<g>
	<g>
		<path class="st0" d="M46.8,21.5c-1.9-2.2-4.2-3.9-7-5.1s-5.9-1.9-9.4-1.9c-3.5,0-6.7,0.6-9.4,1.9c-2.8,1.3-5.1,3-7,5.1
			c-1.9,2.2-3.4,4.7-4.4,7.6c-1,2.9-1.5,6-1.5,9.3c0,3.4,0.5,6.5,1.5,9.4c1,2.9,2.4,5.4,4.4,7.5c1.9,2.2,4.2,3.9,7,5.1
			c2.8,1.2,6,1.8,9.5,1.8c3.5,0,6.6-0.6,9.4-1.8c2.8-1.2,5.1-2.9,7-5.1c1.9-2.1,3.4-4.6,4.4-7.5c1-2.9,1.5-6,1.5-9.4
			c0-3.3-0.5-6.4-1.5-9.3C50.2,26.2,48.8,23.7,46.8,21.5z M41.9,44.4c-0.5,1.8-1.3,3.4-2.3,4.8c-1,1.4-2.3,2.5-3.8,3.3
			c-1.5,0.8-3.3,1.2-5.3,1.2c-2,0-3.8-0.4-5.3-1.2c-1.5-0.8-2.8-1.9-3.8-3.3c-1-1.4-1.8-3-2.3-4.8c-0.5-1.8-0.8-3.8-0.8-5.9
			c0-2,0.3-4,0.8-5.8c0.5-1.9,1.3-3.5,2.3-4.9c1-1.4,2.3-2.5,3.8-3.3c1.5-0.8,3.3-1.3,5.3-1.3c2,0,3.7,0.4,5.3,1.3
			c1.5,0.8,2.8,2,3.8,3.3c1,1.4,1.8,3,2.3,4.9c0.5,1.9,0.8,3.8,0.8,5.8C42.7,40.6,42.4,42.5,41.9,44.4z M63.9,82.9h10.3V11.2H63.9
			V82.9z M134.9,61.1c-1.9-1.4-4.2-2.5-6.8-3.2c-2.6-0.7-5.4-1.1-8.3-1.1c-2.9,0-5.7,0.4-8.3,1.1c-2.6,0.7-4.9,1.8-6.9,3.2
			c-2,1.4-3.5,3.1-4.7,5.3c-1.1,2.1-1.7,4.6-1.7,7.3c0,2.8,0.6,5.3,1.7,7.4c1.1,2.1,2.7,3.8,4.7,5.2c2,1.4,4.3,2.4,6.9,3.1
			c2.6,0.7,5.4,1,8.3,1c2.9,0,5.6-0.3,8.2-1c2.6-0.7,4.9-1.7,6.8-3.1c2-1.4,3.6-3.1,4.7-5.2c1.2-2.1,1.8-4.6,1.8-7.4
			c0-2.8-0.6-5.2-1.7-7.3C138.4,64.3,136.8,62.5,134.9,61.1z M127.7,80.3c-2.1,1.5-4.8,2.2-8,2.2c-3.3,0-6-0.7-8.1-2.2
			c-2.1-1.5-3.1-3.6-3.1-6.5s1-5.1,3.1-6.5c2.1-1.5,4.8-2.2,8.1-2.2c3.2,0,5.9,0.7,8,2.2c2.1,1.5,3.1,3.6,3.1,6.5
			S129.8,78.8,127.7,80.3z M137.6,32.5c1-1.2,1.7-2.5,2.3-4c0.6-1.5,0.9-3.1,0.9-5c0-2.6-0.6-4.9-1.7-6.9c-1.1-2-2.7-3.7-4.6-5.1
			c-2-1.3-4.3-2.3-6.8-3.1c-2.6-0.7-5.3-1.1-8.3-1.1c-2.9,0-5.7,0.4-8.3,1.1c-2.6,0.7-4.9,1.7-6.9,3.1c-2,1.4-3.5,3.1-4.7,5.1
			c-1.1,2-1.7,4.3-1.7,6.9c0,1.9,0.3,3.7,0.9,5.2c0.6,1.6,1.5,3,2.6,4.2v11.9H85.4v8h69.3v-8h-17.1V32.5z M127.3,44.9h-15.8v-6.1
			c1.2,0.4,2.4,0.6,3.7,0.7c1.3,0.1,2.7,0.2,4.1,0.2c1.4,0,2.7-0.1,4.1-0.2c1.4-0.1,2.7-0.4,3.9-0.8V44.9z M127.2,29.6
			c-2,1.3-4.7,2-7.9,2c-3.3,0-6-0.7-8.1-2c-2.1-1.3-3.2-3.3-3.2-6c0-2.7,1-4.7,3.2-6c2.1-1.3,4.8-1.9,8.1-1.9c3.2,0,5.9,0.6,7.9,1.9
			c2,1.3,3.1,3.3,3.1,6C130.3,26.2,129.2,28.2,127.2,29.6z M161.8,65.6H191v20h10.5v-20h29.6v-8.3h-69.4V65.6z M174.9,29.8
			c-0.5,1.6-0.8,3.3-0.8,5.1c0,2.7,0.6,5.1,1.7,7.3c1.1,2.2,2.6,4,4.5,5.5c1.9,1.5,4.2,2.6,6.8,3.4c2.6,0.8,5.4,1.2,8.4,1.2
			c2.9,0,5.7-0.4,8.3-1.2c2.6-0.8,4.9-1.9,6.9-3.4c1.9-1.5,3.4-3.3,4.6-5.5c1.1-2.2,1.7-4.6,1.7-7.3c0-1.8-0.3-3.5-0.9-5.1
			c-0.6-1.6-1.3-3.1-2.3-4.5h9.6v-8.2h-24.1c0.5-1,0.8-1.9,1-2.9c0.2-1,0.3-2,0.4-3.1c0-0.9-0.1-1.9-0.3-3c-0.2-1.1-0.5-2.2-0.8-3.2
			l-10.4,2.5c0.2,0.6,0.4,1.3,0.6,2c0.2,0.8,0.4,1.5,0.5,2.2c0.1,1.3,0.1,2.3-0.1,3.2c-0.2,0.9-0.5,1.6-0.8,2.3h-21.5v8.2h9.2
			C176.2,26.7,175.5,28.2,174.9,29.8z M187,28.7c1.6-1.9,4.5-2.9,8.5-2.9c3.8,0,6.7,1,8.5,2.9c1.8,1.9,2.7,4,2.7,6.2
			c0,2.2-0.9,4.3-2.7,6.2s-4.6,2.8-8.5,2.8c-4,0-6.8-0.9-8.5-2.8c-1.7-1.9-2.5-3.9-2.5-6.2C184.5,32.7,185.4,30.7,187,28.7z
			 M292.5,11.2v71.7h10.3V11.2H292.5z M273.2,14.3h-31.5v8.4h24.8c1.3,0,1.9,0.4,2.1,1.2c0.1,0.8,0.1,1.7,0,2.6
			c-0.7,3.7-1.7,7-3.2,10.1c-1.4,3.1-3.3,6-5.6,8.9c-2.2,2.8-4.8,5.4-7.9,8.1c-3,2.6-6.4,5.2-10.2,7.9l5.5,7.6
			c5-3.1,9.5-6.4,13.3-10.1c3.8-3.7,7.1-7.5,9.8-11.4c2.7-4,4.8-8,6.3-12.2c1.5-4.2,2.5-8.3,2.9-12.4c0.2-2.3-0.2-4.3-1.1-6
			C277.7,15.1,275.9,14.3,273.2,14.3z"/>
	</g>
</g>
</svg>
