<?xml version="1.0" encoding="utf-8"?>
<!-- Generator: Adobe Illustrator 22.1.0, SVG Export Plug-In . SVG Version: 6.00 Build 0)  -->
<svg version="1.1" id="레이어_1" xmlns="http://www.w3.org/2000/svg" xmlns:xlink="http://www.w3.org/1999/xlink" x="0px"
	 y="0px" viewBox="0 0 78 34" style="enable-background:new 0 0 78 34;" xml:space="preserve">
<style type="text/css">
	.st0{fill:#202020;}
</style>
<g>
	<path class="st0" d="M12.8,7C12.9,7.1,13,7.3,13,7.6c0,0.8-0.1,1.8-0.2,2.9c-0.1,1.2-0.3,2.3-0.6,3.3l3.1,0.4
		c0.1-0.6,0.2-1.2,0.4-1.9c0.1-0.7,0.2-1.4,0.3-2.2c0.1-0.7,0.1-1.4,0.2-2c0-0.6,0.1-1.2,0-1.6c-0.1-0.8-0.3-1.3-0.6-1.7
		c-0.3-0.4-0.9-0.6-1.7-0.6H2.6v2.7h9.7C12.5,6.8,12.7,6.8,12.8,7z M19.7,26.5c-1,0.2-2.1,0.2-3.3,0.2H9.7c-0.3,0-0.5-0.1-0.6-0.2
		s-0.2-0.4-0.2-0.6v-5H5.4v5.8c0,1,0.3,1.7,0.9,2.1c0.6,0.4,1.3,0.6,2.2,0.6h7.9c0.8,0,1.5,0,2.1-0.1c0.6,0,1.2-0.1,1.7-0.2
		s1.1-0.2,1.6-0.4c0.5-0.1,1.1-0.3,1.8-0.5l-0.7-2.6C21.8,26.1,20.7,26.4,19.7,26.5z M22.8,3.7h-3.4v10.5c-0.9,0.6-2,1.1-3.2,1.4
		c-1.2,0.3-2.5,0.5-4,0.5H9.7v-5.2H6.3V16H1.7v2.7h10.5c1.5,0,2.8-0.1,4-0.4s2.2-0.7,3.1-1.2V22h3.4v-7.6h4.2v-2.8h-4.2L22.8,3.7
		L22.8,3.7z M39.5,6.6c0.1,0.1,0.2,0.3,0.2,0.6c0,0.8-0.1,1.7-0.2,2.8c-0.1,1-0.3,2.1-0.5,3.1l3.1,0.4c0.1-0.6,0.2-1.2,0.3-1.9
		c0.1-0.7,0.2-1.4,0.3-2c0.1-0.7,0.1-1.3,0.2-1.9c0-0.6,0.1-1.1,0.1-1.6c0-0.8-0.2-1.3-0.6-1.7c-0.4-0.4-1-0.6-1.8-0.6H29.3v2.7H39
		C39.2,6.5,39.4,6.5,39.5,6.6z M53.6,10.5h-4.2V3.7H46v9.4c-0.9,0.6-2,1.1-3.2,1.4c-1.2,0.3-2.5,0.5-4,0.5h-2.4v-5H33v5h-4.6v2.7
		h10.5c1.5,0,2.8-0.1,4-0.4s2.2-0.7,3.1-1.2v1.1c0,0.6-0.1,1.1-0.3,1.5c-0.2,0.4-0.5,0.8-0.8,1.1c-0.5-0.2-1.1-0.4-1.6-0.5
		c-0.6-0.1-1.2-0.2-1.9-0.2c-1.1,0-2,0.1-2.9,0.4s-1.6,0.6-2.3,1.1c-0.6,0.5-1.1,1.1-1.5,1.8c-0.4,0.7-0.5,1.5-0.5,2.3
		c0,0.9,0.2,1.7,0.5,2.4c0.3,0.7,0.8,1.3,1.5,1.8c0.6,0.5,1.4,0.8,2.3,1.1c0.9,0.3,1.8,0.4,2.9,0.4c1,0,2-0.1,2.9-0.4
		s1.6-0.6,2.2-1.1s1.1-1.1,1.5-1.8c0.4-0.7,0.5-1.5,0.5-2.3c0-0.7-0.1-1.4-0.4-2s-0.6-1.2-1-1.6c0.6-0.4,1.1-0.9,1.6-1.6
		c0.5-0.6,0.7-1.4,0.7-2.4v-4h4.2L53.6,10.5L53.6,10.5z M44.1,27c-0.7,0.5-1.6,0.7-2.7,0.7s-2-0.2-2.7-0.7s-1-1.2-1-2.2
		s0.3-1.7,1-2.2s1.6-0.8,2.7-0.8s2,0.3,2.7,0.8s1,1.2,1,2.2C45.2,25.7,44.8,26.5,44.1,27z M67.1,15.8c-0.4-0.5-0.8-0.8-1.3-1.1
		c-0.4-0.2-1-0.4-1.7-0.6c0.7-1,1.3-2.1,1.8-3.2s0.8-2.1,0.9-3.1c0.1-0.8,0-1.5-0.4-2.1c-0.3-0.6-0.9-0.8-1.7-0.8H54.5v2.9h8.1
		c0.2,0,0.4,0.1,0.5,0.2s0.1,0.3,0.1,0.6c-0.2,1-0.6,2-1.2,3s-1.3,2-2.2,3c-0.9,1-1.8,1.9-2.9,2.8s-2.2,1.8-3.4,2.5l1.8,2.6
		c1.3-0.9,2.6-1.9,3.8-2.9c1.2-1,2.3-2.1,3.3-3.3c0.5,0.1,0.9,0.3,1.3,0.5s0.7,0.5,1,0.8c0.4,0.5,0.9,1.2,1.5,2.1s1.2,1.8,1.8,2.7
		l2.4-1.8c-0.6-0.8-1.1-1.7-1.7-2.6C68.1,17.2,67.6,16.5,67.1,15.8z M72.4,27.9h3.5V4h-3.5V27.9z"/>
</g>
</svg>
