<?xml version="1.0" encoding="utf-8"?>
<!-- Generator: Adobe Illustrator 22.1.0, SVG Export Plug-In . SVG Version: 6.00 Build 0)  -->
<svg version="1.1" id="레이어_1" xmlns="http://www.w3.org/2000/svg" xmlns:xlink="http://www.w3.org/1999/xlink" x="0px"
	 y="0px" viewBox="0 0 105.5 40" style="enable-background:new 0 0 105.5 40;" xml:space="preserve">
<style type="text/css">
	.st0{fill:#A4C252;}
	.st1{opacity:0.1;fill:#040000;enable-background:new    ;}
	.st2{fill:#FFFFFF;}
	.st3{fill:#1E1F1F;}
</style>
<circle class="st0" cx="18.8" cy="19.9" r="17.5"/>
<path class="st1" d="M25.4,25.6c-0.2-0.1-0.3-0.2-0.5-0.4c-0.8-0.5-1.6-1-2.4-1.5c-0.4-0.2-0.7-0.2-1,0.1c-0.5,0.5-1,0.9-1.5,1.4
	c-0.3,0.3-0.6,0.3-0.9,0.1c-2.4-1.4-4.1-3.4-5.1-5.9c-0.2-0.4-0.1-0.7,0.2-1c0.5-0.4,0.9-0.8,1.3-1.3c0.1-0.2,0.2-0.4,0.2-0.7
	c-0.3-1.3-0.6-2.5-1-3.8c-0.1-0.2-0.2-0.4-0.3-0.5c-0.5-0.3-1.8-0.4-2.3,0c-1.5,1.1-2.3,2.5-2.2,4.4c0.1,1.6,0.7,3,1.4,4.3
	c1.9,3.6,4.5,6.5,8.3,8.2c0.6,0.3,1.1,0.5,1.8,0.5c0.4,0.1,0.7,0.1,1.1,0.1c1.7-0.2,3.2-0.9,3.6-2.7C26.2,26.1,26.2,26.1,25.4,25.6z
	"/>
<path class="st1" d="M26.7,22.5L26.7,22.5c-0.4,0-0.6-0.3-0.6-0.6c0.1-2.3-0.8-4.5-2.4-6.1c-1.6-1.7-3.7-2.6-6-2.7
	c-0.3,0-0.6-0.3-0.6-0.6s0.3-0.6,0.6-0.6c2.6,0.1,5.1,1.2,6.9,3.1s2.8,4.4,2.7,7C27.4,22.3,27.1,22.5,26.7,22.5z"/>
<path class="st1" d="M23.7,22L23.7,22c-0.4,0-0.6-0.3-0.6-0.6c0-1.4-0.5-2.7-1.4-3.7s-2.2-1.6-3.6-1.6c-0.3,0-0.6-0.3-0.6-0.6
	s0.3-0.6,0.6-0.6c1.7,0,3.3,0.8,4.5,2s1.8,2.9,1.8,4.6C24.3,21.7,24.1,22,23.7,22z"/>
<path class="st2" d="M25.8,24.9c-0.2-0.1-0.3-0.2-0.5-0.4c-0.8-0.5-1.6-1-2.4-1.5c-0.4-0.2-0.7-0.2-1,0.1c-0.5,0.5-1,0.9-1.5,1.4
	c-0.3,0.3-0.6,0.3-0.9,0.1c-2.4-1.4-4.1-3.4-5.1-5.9c-0.2-0.4-0.1-0.7,0.2-1c0.5-0.4,0.9-0.8,1.3-1.3c0.1-0.2,0.2-0.4,0.2-0.7
	c-0.3-1.3-0.6-2.5-1-3.8c-0.1-0.2-0.2-0.4-0.3-0.5c-0.5-0.3-1.8-0.4-2.3,0c-1.5,1.1-2.3,2.5-2.2,4.4c0.1,1.6,0.7,3,1.4,4.3
	c1.9,3.6,4.5,6.5,8.3,8.2c0.6,0.3,1.1,0.5,1.8,0.5c0.4,0.1,0.7,0.1,1.1,0.1c1.7-0.2,3.2-0.9,3.6-2.7C26.6,25.5,26.6,25.5,25.8,24.9z
	"/>
<path class="st2" d="M27.2,21.9C27.1,21.9,27.1,21.9,27.2,21.9c-0.4,0-0.6-0.3-0.6-0.6c0.1-2.3-0.8-4.5-2.4-6.1
	c-1.6-1.7-3.7-2.6-6-2.7c-0.3,0-0.6-0.3-0.6-0.6s0.3-0.6,0.6-0.6c2.6,0.1,5.1,1.2,6.9,3.1s2.8,4.4,2.7,7
	C27.8,21.6,27.5,21.9,27.2,21.9z"/>
<path class="st2" d="M24.1,21.4L24.1,21.4c-0.4,0-0.6-0.3-0.6-0.6c0-1.4-0.5-2.7-1.4-3.7s-2.2-1.6-3.6-1.6c-0.3,0-0.6-0.3-0.6-0.6
	s0.3-0.6,0.6-0.6c1.7,0,3.3,0.8,4.5,2s1.8,2.9,1.8,4.6C24.7,21.1,24.5,21.4,24.1,21.4z"/>
<g>
	<g>
		<path class="st3" d="M61.6,27.8c-0.8,0.1-1.6,0.2-2.4,0.2h-5.4c-0.3,0-0.4-0.1-0.5-0.2c-0.1-0.1-0.1-0.3-0.1-0.4v-3.7h-2.6V28
			c0,0.6,0.2,1.1,0.6,1.5c0.4,0.3,0.9,0.5,1.7,0.5h6.4c1,0,2-0.1,2.8-0.2c0.9-0.2,1.6-0.4,2.3-0.6l-0.5-1.9
			C63.1,27.5,62.4,27.7,61.6,27.8z M51.6,17.7c0.5,0.3,1.2,0.5,2,0.5h5.2c0.8,0,1.7-0.1,2.6-0.4c0.9-0.3,1.6-0.6,2.2-0.9v-6.1H50.8
			v5.3C50.8,16.9,51.1,17.4,51.6,17.7z M53.4,12.8H61v2.9c-0.4,0.2-0.9,0.3-1.3,0.4c-0.4,0.1-0.8,0.1-1.2,0.1H54
			c-0.2,0-0.4,0-0.5-0.1c-0.1-0.1-0.1-0.2-0.1-0.4V12.8z M48.6,22h7.7v3.3h2.6V22H66v-2.1H48.6V22z M70.3,19.9
			c0.5,0.5,1.1,0.8,1.8,1c0.7,0.2,1.4,0.4,2.2,0.4c0.8,0,1.6-0.1,2.2-0.4c0.7-0.2,1.3-0.6,1.8-1c0.5-0.5,0.9-1,1.1-1.6
			c0.3-0.6,0.4-1.4,0.4-2.2c0-0.8-0.1-1.5-0.4-2.1c-0.3-0.6-0.7-1.2-1.1-1.6c-0.5-0.5-1.1-0.8-1.7-1.1c-0.7-0.3-1.4-0.4-2.2-0.4
			c-0.8,0-1.6,0.1-2.2,0.4c-0.7,0.3-1.3,0.6-1.8,1.1c-0.5,0.5-0.9,1-1.1,1.6c-0.3,0.6-0.4,1.3-0.4,2.1c0,0.8,0.1,1.5,0.4,2.2
			C69.4,18.9,69.8,19.4,70.3,19.9z M72.2,13.8c0.6-0.6,1.3-0.8,2.1-0.8c0.9,0,1.6,0.3,2.1,0.8c0.5,0.6,0.8,1.3,0.8,2.3
			c0,1-0.3,1.8-0.8,2.3c-0.5,0.5-1.3,0.8-2.1,0.8c-0.9,0-1.6-0.3-2.1-0.8c-0.6-0.5-0.8-1.3-0.8-2.3C71.3,15.1,71.6,14.4,72.2,13.8z
			 M82,22.5c-0.9,0.5-1.8,0.9-2.8,1.2c-1,0.2-2.2,0.3-3.6,0.3h-7.5V26h7.3c1.3,0,2.6-0.1,3.7-0.4c1.1-0.3,2.1-0.6,2.9-1.1v4.2h2.6
			v-18H82V22.5z M101.2,10.8v7.1h-3.7V20h3.7v8.8h2.6v-18H101.2z M96.6,20.9c-0.2-0.3-0.5-0.5-0.8-0.8c-0.3-0.2-0.7-0.4-1.1-0.5
			c0.7-0.9,1.2-1.7,1.7-2.6c0.4-0.8,0.7-1.6,0.8-2.2c0-0.5,0-0.9-0.2-1.3c-0.2-0.4-0.6-0.6-1.2-0.6h-2.6c0.2-0.4,0.3-0.9,0.4-1.3
			c0.1-0.5,0-1-0.1-1.4l-0.2-0.7l-2.4,0.7l0.2,0.5c0.1,0.4,0.2,0.8,0.1,1.2c0,0.4-0.1,0.7-0.3,1.1h-3.6V15h6.7
			c0.2,0,0.3,0.1,0.4,0.2c0.1,0.1,0.1,0.3,0,0.6c-0.5,1.1-1.3,2.4-2.6,3.8c-1.3,1.4-2.9,2.7-4.9,4.1l1.3,1.9c0.9-0.6,1.9-1.3,2.8-2
			c0.9-0.8,1.7-1.6,2.5-2.4c0.3,0.1,0.5,0.2,0.7,0.4c0.2,0.2,0.4,0.4,0.7,0.6c0.4,0.5,0.7,1,1.1,1.5c0.4,0.6,0.8,1.2,1.3,1.9
			l1.9-1.4c-0.4-0.6-0.8-1.2-1.3-1.8C97.4,21.9,97,21.4,96.6,20.9z"/>
	</g>
</g>
</svg>
