<?xml version="1.0" encoding="utf-8"?>
<!-- Generator: Adobe Illustrator 22.1.0, SVG Export Plug-In . SVG Version: 6.00 Build 0)  -->
<svg version="1.1" id="레이어_1" xmlns="http://www.w3.org/2000/svg" xmlns:xlink="http://www.w3.org/1999/xlink" x="0px"
	 y="0px" viewBox="0 0 204 34" style="enable-background:new 0 0 204 34;" xml:space="preserve">
<style type="text/css">
	.st0{fill:#FFFFFF;}
</style>
<g>
	<g>
		<path class="st0" d="M2,22.3h5.4v6.7h3.4v-6.7h5.4v6.7h3.4v-6.7h5.6v-2.8H2V22.3z M6.4,10.4c-0.2,0.5-0.3,1.1-0.3,1.7
			c0,0.9,0.2,1.7,0.6,2.4c0.4,0.7,0.9,1.3,1.5,1.8c0.6,0.5,1.4,0.9,2.2,1.1c0.9,0.3,1.8,0.4,2.8,0.4c1,0,1.9-0.1,2.8-0.4
			c0.9-0.3,1.6-0.6,2.3-1.1c0.6-0.5,1.1-1.1,1.5-1.8c0.4-0.7,0.6-1.5,0.6-2.4c0-0.6-0.1-1.2-0.3-1.7c-0.2-0.5-0.4-1-0.8-1.5h3.2V6.1
			h-8c0.2-0.3,0.3-0.6,0.3-1c0.1-0.3,0.1-0.7,0.1-1c0-0.3,0-0.6-0.1-1c-0.1-0.4-0.2-0.7-0.3-1.1l-3.5,0.8c0.1,0.2,0.1,0.4,0.2,0.7
			c0.1,0.3,0.1,0.5,0.2,0.7c0,0.4,0,0.8,0,1.1c-0.1,0.3-0.2,0.5-0.3,0.8H4.1v2.7h3.1C6.8,9.3,6.5,9.8,6.4,10.4z M10.4,10
			c0.5-0.6,1.5-1,2.8-1c1.3,0,2.2,0.3,2.8,1c0.6,0.6,0.9,1.3,0.9,2.1c0,0.7-0.3,1.4-0.9,2.1c-0.6,0.6-1.5,0.9-2.8,0.9
			c-1.3,0-2.3-0.3-2.8-0.9c-0.6-0.6-0.8-1.3-0.8-2.1C9.6,11.3,9.8,10.6,10.4,10z M46.8,3.8h-3.4v11.8c0,0.7-0.1,1.3-0.2,1.8
			c-0.2,0.5-0.4,0.9-0.8,1.2c-0.5-0.2-1.1-0.4-1.7-0.6c-0.6-0.1-1.2-0.2-1.9-0.2c-1,0-1.9,0.2-2.8,0.5c-0.9,0.3-1.6,0.7-2.3,1.3
			c-0.6,0.6-1.2,1.2-1.5,2c-0.4,0.8-0.6,1.6-0.6,2.6c0,0.9,0.2,1.8,0.6,2.6c0.4,0.8,0.9,1.4,1.5,2c0.7,0.6,1.4,1,2.3,1.3
			c0.9,0.3,1.8,0.4,2.8,0.4c1,0,1.9-0.1,2.7-0.4c0.9-0.3,1.6-0.7,2.3-1.3c0.6-0.6,1.2-1.2,1.5-2c0.4-0.8,0.6-1.6,0.6-2.6
			c0-0.8-0.1-1.5-0.4-2.2c-0.3-0.7-0.6-1.3-1.1-1.8c0.7-0.5,1.3-1.2,1.7-1.9c0.4-0.7,0.6-1.6,0.6-2.6V15h3.9v-2.7h-3.9v-3h3.9V6.5
			h-3.9V3.8z M41.4,26.9c-0.7,0.6-1.5,1-2.6,1c-1.1,0-2-0.3-2.7-1c-0.7-0.7-1-1.5-1-2.6s0.3-2,1-2.6c0.7-0.7,1.6-1,2.7-1
			c1.1,0,2,0.3,2.6,1c0.7,0.7,1,1.5,1,2.6S42.1,26.3,41.4,26.9z M35.5,16.1c0.8-0.3,1.6-0.7,2.2-1.3c0.6-0.6,1.2-1.2,1.5-2
			c0.4-0.8,0.6-1.7,0.6-2.7c0-1-0.2-1.9-0.6-2.7c-0.4-0.8-0.9-1.5-1.6-2c-0.6-0.5-1.4-1-2.2-1.3c-0.9-0.3-1.7-0.5-2.7-0.5
			c-0.9,0-1.8,0.1-2.7,0.5c-0.9,0.3-1.6,0.7-2.2,1.3c-0.7,0.6-1.2,1.2-1.5,2c-0.4,0.8-0.6,1.7-0.6,2.7c0,1.1,0.2,2,0.6,2.8
			c0.4,0.8,0.9,1.5,1.5,2c0.6,0.5,1.4,0.9,2.2,1.2c0.8,0.3,1.8,0.4,2.7,0.4C33.8,16.6,34.7,16.4,35.5,16.1z M29.2,10.1
			c0-1,0.3-1.8,1-2.6c0.6-0.7,1.5-1.1,2.7-1.1c1.2,0,2.1,0.4,2.7,1.1c0.6,0.7,1,1.6,1,2.6c0,1-0.3,1.9-1,2.6
			c-0.6,0.7-1.5,1.1-2.7,1.1c-1.1,0-2-0.4-2.7-1.1C29.5,12,29.2,11.1,29.2,10.1z M60,11.7c1.5-0.8,2.7-1.7,3.6-2.8
			c0.8,0,1.5,0.2,2,0.4c0.5,0.2,1,0.5,1.5,0.8c0.7,0.5,1.4,1,2.3,1.6c0.9,0.6,1.8,1.3,2.8,2l1.8-2.5c-0.9-0.7-1.8-1.3-2.7-1.9
			c-0.9-0.6-1.7-1.2-2.4-1.6c-0.4-0.3-1-0.5-1.6-0.7c-0.6-0.2-1.4-0.3-2.2-0.3c0.1-0.3,0.2-0.7,0.3-1c0.1-0.3,0.1-0.7,0.1-1.1
			c0-0.4,0-0.7-0.1-1.1c-0.1-0.4-0.2-0.8-0.3-1.1l-3.4,0.8c0.1,0.2,0.1,0.5,0.2,0.9c0,0.3,0.1,0.6,0.1,0.7c0,1.1-0.6,2.2-1.6,3.2
			c-1.1,1-3,1.9-5.8,2.7l0.8,2.9C56.9,13.1,58.5,12.5,60,11.7z M52.5,17.7H62v2.8h-7v2.8h13.2c0.4,0,0.6,0.1,0.7,0.3
			c0.1,0.2,0.2,0.4,0.2,0.8V30h3.2l0.3-7.1c0-0.7-0.1-1.3-0.5-1.7c-0.3-0.4-0.9-0.6-1.7-0.6h-5v-2.8h10.1v-2.7H52.5V17.7z
			 M102.6,9.9h-4.2v-6H95V16c0,0.7-0.1,1.4-0.3,2.1c-0.2,0.7-0.5,1.2-0.9,1.6H80.8v2.8H94c0.3,0,0.5,0.1,0.6,0.2
			c0.1,0.1,0.2,0.3,0.2,0.5V30h3.2l0.4-8.4c0-0.5-0.1-1-0.4-1.4c-0.3-0.4-0.7-0.6-1.1-0.6c0.5-0.4,0.9-0.9,1.2-1.5
			c0.3-0.6,0.5-1.3,0.5-2.1v-3.4h4.2V9.9z M84.2,16.9c1.1,0,2.2-0.2,3.3-0.5c1.1-0.3,2.2-0.8,3.2-1.4V4.3h-3.3v3.5h-6.1V4.3h-3.4
			v9.8c0,1,0.2,1.7,0.8,2.1c0.5,0.5,1.3,0.7,2.4,0.7H84.2z M81.2,10.5h6.1v2.9c-0.5,0.2-1,0.4-1.5,0.6c-0.5,0.1-1,0.2-1.6,0.2H82
			c-0.3,0-0.5-0.1-0.6-0.2c-0.1-0.1-0.2-0.3-0.2-0.6V10.5z M114.4,15.4c-0.4-0.5-0.9-0.9-1.4-1.2c-0.5-0.2-1.1-0.4-1.7-0.5
			c0.3-0.8,0.5-1.7,0.6-2.6c0.1-0.9,0.2-1.9,0.2-2.9c0-0.7-0.1-1.3-0.2-2c-0.1-0.6-0.4-1.3-0.7-1.9L108,5.5c0.2,0.4,0.3,0.8,0.5,1.3
			c0.1,0.5,0.2,1,0.2,1.5c0,1.4-0.1,2.7-0.4,3.8c-0.3,1.1-0.7,2.1-1.3,3.1c-0.6,1-1.3,1.9-2.1,2.7c-0.9,0.9-1.8,1.7-3,2.6l2,2.5
			c1.4-1,2.6-2,3.7-3.1c1.1-1.1,2-2.3,2.7-3.6c0.4,0.1,0.7,0.3,1,0.5c0.3,0.2,0.6,0.4,0.8,0.7c0.4,0.5,1,1.3,1.6,2.4
			c0.6,1,1.3,2.1,2.1,3.3l2.6-1.8c-0.8-1.3-1.5-2.4-2.1-3.4C115.5,17,114.9,16.1,114.4,15.4z M120.5,28.1h3.5V4.1h-3.5V28.1z
			 M146,27.2c-0.9,0.1-1.7,0.1-2.4,0.1h-8.2v-2.1h11.8c0.4,0,0.6-0.1,0.8-0.2c0.1-0.2,0.2-0.4,0.3-0.7l0.5-4.2
			c0.1-0.7,0-1.2-0.3-1.5c-0.2-0.3-0.7-0.5-1.4-0.6c0.5-0.4,0.9-0.9,1.2-1.5c0.3-0.6,0.5-1.3,0.5-2.1V3.8h-3.4v4.3h-5.2v2.7h5.2v3.5
			c0,0.7-0.1,1.4-0.3,2.1c-0.2,0.7-0.5,1.2-1,1.6h-12.2v2.6h13.4v2h-13.4v5.1c0,0.8,0.2,1.4,0.7,1.7c0.4,0.3,1,0.5,1.7,0.5h9.4
			c0.9,0,1.8-0.1,2.7-0.2c0.9-0.1,1.9-0.3,2.9-0.6l-0.6-2.5C147.7,26.9,146.9,27.1,146,27.2z M134.4,10.9c0.4,0.1,0.7,0.3,0.9,0.5
			c0.3,0.2,0.5,0.5,0.8,0.9c0.3,0.5,0.8,1.2,1.3,2c0.5,0.8,1,1.6,1.6,2.5l2.4-1.7c-0.4-0.7-0.9-1.5-1.5-2.4
			c-0.6-0.9-1.1-1.7-1.5-2.3c-0.4-0.5-0.8-0.8-1.4-1.1c-0.6-0.3-1.1-0.5-1.7-0.6c0.1-0.3,0.1-0.6,0.2-0.9c0-0.3,0.1-0.6,0.1-0.9
			c0-0.5-0.1-1-0.2-1.7c-0.1-0.7-0.3-1.2-0.5-1.7l-3.3,1c0.1,0.4,0.2,0.7,0.3,1.2c0.1,0.4,0.1,0.8,0.1,1.2c-0.1,1.3-0.6,2.6-1.5,4
			c-0.9,1.3-2.3,2.5-4.2,3.6l1.7,2.5c1.2-0.7,2.4-1.5,3.5-2.5C132.8,13.3,133.7,12.1,134.4,10.9z M166.4,7.9h-4
			c-0.5-0.8-1.2-1.4-2-1.8s-1.8-0.7-2.8-0.7c-2,0-3.6,0.7-4.6,2.2c-1,1.4-1.6,3.3-1.6,5.7c0,2.4,0.5,4.3,1.5,5.7
			c1,1.4,2.6,2.1,4.6,2.1c1.1,0,2-0.2,2.8-0.6c0.8-0.4,1.5-1,2-1.8h4.1v8.8h3.2V4.1h-3.2V7.9z M160.4,15.1c-0.1,0.6-0.3,1.1-0.5,1.6
			c-0.2,0.5-0.6,0.8-0.9,1.1c-0.4,0.3-0.9,0.4-1.4,0.4c-0.6,0-1.1-0.1-1.4-0.4c-0.4-0.3-0.7-0.6-0.9-1.1c-0.2-0.5-0.4-1-0.5-1.6
			c-0.1-0.6-0.1-1.2-0.1-1.9c0-0.7,0-1.3,0.1-1.9c0.1-0.6,0.3-1.1,0.5-1.6c0.2-0.5,0.5-0.8,0.9-1.1c0.4-0.3,0.9-0.4,1.4-0.4
			c0.6,0,1,0.1,1.4,0.4c0.4,0.3,0.7,0.7,0.9,1.1c0.2,0.5,0.4,1,0.5,1.6c0.1,0.6,0.2,1.2,0.2,1.9C160.5,13.9,160.5,14.5,160.4,15.1z
			 M166.4,15.8h-3c0.1-0.4,0.1-0.8,0.2-1.2c0-0.4,0.1-0.9,0.1-1.4c0-0.4,0-0.8-0.1-1.3c-0.1-0.4-0.1-0.8-0.2-1.2h3V15.8z
			 M171.9,28.1h3.3V4.1h-3.3V28.1z M184.6,16.7c0.9,0,1.8-0.1,2.7-0.5c0.8-0.3,1.6-0.7,2.2-1.3c0.6-0.6,1.2-1.2,1.5-2.1
			c0.4-0.8,0.6-1.7,0.6-2.7c0-1-0.2-1.9-0.6-2.7c-0.4-0.8-0.9-1.5-1.6-2.1c-0.6-0.6-1.4-1-2.2-1.3c-0.9-0.3-1.7-0.5-2.7-0.5
			c-0.9,0-1.8,0.2-2.7,0.5c-0.9,0.3-1.6,0.8-2.2,1.3c-0.7,0.6-1.2,1.2-1.5,2.1c-0.4,0.8-0.6,1.7-0.6,2.7c0,1.1,0.2,2,0.6,2.9
			c0.4,0.8,0.9,1.5,1.5,2.1c0.6,0.6,1.4,1,2.2,1.2C182.7,16.6,183.6,16.7,184.6,16.7z M181.9,7.6c0.6-0.8,1.5-1.2,2.7-1.2
			c1.2,0,2.1,0.4,2.7,1.2c0.6,0.8,1,1.6,1,2.6c0,1-0.3,1.9-1,2.7c-0.6,0.7-1.5,1.1-2.7,1.1c-1.1,0-2-0.4-2.7-1.1
			c-0.7-0.7-1-1.6-1-2.7C180.9,9.2,181.2,8.3,181.9,7.6z M202.4,9.4V6.7h-3.9V3.8h-3.4V16c0,0.7-0.1,1.4-0.3,2.1
			c-0.2,0.7-0.5,1.2-0.9,1.6h-12.9v2.8H194c0.3,0,0.5,0.1,0.6,0.2c0.1,0.1,0.2,0.3,0.2,0.5V30h3.2l0.4-8.4c0-0.5-0.1-1-0.4-1.4
			c-0.3-0.4-0.7-0.6-1.1-0.6c0.5-0.4,0.9-0.9,1.2-1.5c0.3-0.6,0.5-1.3,0.5-2.1v-0.7h3.9v-2.7h-3.9V9.4H202.4z"/>
	</g>
</g>
</svg>
