<?xml version="1.0" encoding="utf-8"?>
<!-- Generator: Adobe Illustrator 22.1.0, SVG Export Plug-In . SVG Version: 6.00 Build 0)  -->
<svg version="1.1" id="레이어_1" xmlns="http://www.w3.org/2000/svg" xmlns:xlink="http://www.w3.org/1999/xlink" x="0px"
	 y="0px" viewBox="0 0 46 27" style="enable-background:new 0 0 46 27;" xml:space="preserve">
<style type="text/css">
	.st0{fill:#202020;}
</style>
<g>
	<g>
		<path class="st0" d="M7,9c1.3-0.7,2.3-1.5,3-2.4c0.7,0,1.3,0.1,1.7,0.3c0.5,0.2,0.9,0.4,1.2,0.6c0.6,0.4,1.2,0.9,2,1.4
			c0.7,0.5,1.5,1.1,2.4,1.7l1.5-2.1C18,8.1,17.2,7.5,16.5,7c-0.8-0.5-1.4-1-2-1.4c-0.4-0.2-0.8-0.4-1.4-0.6
			c-0.5-0.2-1.2-0.3-1.9-0.3c0.1-0.3,0.2-0.6,0.2-0.9c0.1-0.3,0.1-0.6,0.1-0.9c0-0.3,0-0.6-0.1-1c-0.1-0.3-0.1-0.7-0.3-1L8.3,1.7
			c0.1,0.2,0.1,0.4,0.1,0.7c0,0.3,0.1,0.5,0.1,0.6C8.5,4,8,4.9,7.1,5.8C6.1,6.7,4.5,7.5,2.1,8.1l0.6,2.5C4.3,10.2,5.7,9.7,7,9z
			 M0.6,14.2h8.1v2.4h-6v2.4H14c0.3,0,0.5,0.1,0.6,0.2c0.1,0.1,0.2,0.4,0.2,0.7v4.8h2.7l0.3-6.1c0-0.6-0.1-1.1-0.4-1.4
			c-0.3-0.3-0.8-0.5-1.5-0.5h-4.3v-2.4h8.6v-2.3H0.6V14.2z M28.1,13.5c0.9,0,1.8-0.1,2.8-0.4c1-0.3,1.9-0.7,2.7-1.2V2.7h-2.8v3h-5.2
			v-3h-2.9v8.4c0,0.8,0.2,1.4,0.6,1.8c0.4,0.4,1.1,0.6,2,0.6H28.1z M25.5,8h5.2v2.5c-0.4,0.2-0.8,0.4-1.3,0.5
			c-0.4,0.1-0.9,0.2-1.4,0.2h-1.9c-0.2,0-0.4-0.1-0.5-0.2c-0.1-0.1-0.2-0.3-0.2-0.5V8z M40.2,7.5V2.3h-2.9v10.3
			c0,0.6-0.1,1.2-0.2,1.8c-0.2,0.6-0.4,1-0.8,1.3h-11v2.4h11.2c0.2,0,0.4,0,0.5,0.1c0.1,0.1,0.1,0.2,0.1,0.4v5.9h2.7l0.3-7.1
			c0-0.5-0.1-0.9-0.3-1.2c-0.2-0.3-0.6-0.5-1-0.5c0.4-0.3,0.7-0.8,1-1.3c0.3-0.5,0.4-1.1,0.4-1.8V9.8h3.6V7.5H40.2z"/>
	</g>
</g>
</svg>
