<?xml version="1.0" encoding="utf-8"?>
<!-- Generator: Adobe Illustrator 22.1.0, SVG Export Plug-In . SVG Version: 6.00 Build 0)  -->
<svg version="1.1" id="레이어_1" xmlns="http://www.w3.org/2000/svg" xmlns:xlink="http://www.w3.org/1999/xlink" x="0px"
	 y="0px" viewBox="0 0 174 80" style="enable-background:new 0 0 174 80;" xml:space="preserve">
<style type="text/css">
	.st0{fill:#1E1F1F;}
</style>
<g>
	<g>
		<path class="st0" d="M6.3,6.7C4.6,8.4,3.8,11,3.8,14.4v52.8H14v-28h27.1v-8.5H14v-15c0-1,0.2-1.8,0.6-2.3c0.4-0.5,1.2-0.8,2.5-0.8
			h25.2V4.1H14C10.6,4.1,8.1,5,6.3,6.7z M69.2,4.1L46.8,67.2h10.3l4.9-14.5H89l4.9,14.5h10.3L81.7,4.1H69.2z M64.4,45.3l11-32.3
			l11.1,32.3H64.4z M168.1,67.4c-1.1,0.7-2,1.1-2.8,1.3c-0.8,0.2-1.5,0.3-2.3,0.3c-1.6,0-3-0.3-4.2-0.8c-1.2-0.5-2.3-1.4-3.5-2.6
			c-0.2-0.1-0.3-0.3-0.5-0.4c-0.2-0.1-0.3-0.3-0.4-0.5c-0.2-0.1-0.3-0.3-0.5-0.5c-0.1-0.2-0.2-0.4-0.4-0.5c3.7-2.6,6.2-6.2,7.7-11
			c1.5-4.7,2.3-10.4,2.3-16.9c0-4.9-0.4-9.4-1.3-13.4c-0.9-4-2.3-7.4-4.4-10.3c-2-2.8-4.8-5-8.2-6.6c-3.4-1.6-7.7-2.3-12.8-2.3
			c-5.2,0-9.5,0.8-12.9,2.3c-3.4,1.6-6.2,3.8-8.2,6.6c-2,2.8-3.5,6.1-4.3,9.9c-0.8,3.8-1.3,8-1.3,12.6c0,5.2,0.4,9.9,1.2,14
			c0.8,4.1,2.2,7.7,4.3,10.5c2,2.9,4.8,5.1,8.1,6.6c3.4,1.5,7.7,2.3,12.9,2.3c1.3,0,2.6-0.1,3.8-0.2c1.2-0.1,2.4-0.3,3.5-0.5
			c0.4,0.5,0.7,1,1.1,1.4c0.4,0.4,0.8,0.8,1.1,1.2c0.4,0.4,0.7,0.8,1.1,1.1c0.4,0.3,0.7,0.6,1.1,0.9c1.6,1.5,3.4,2.7,5.5,3.6
			c2.1,0.9,4.5,1.4,7.2,1.4c1.7,0,3.4-0.3,5.1-0.9c1.7-0.6,3.3-1.5,4.7-2.7L168.1,67.4z M152,47.1c-0.7,3-1.8,5.4-3.1,7.2
			c-1.3,1.8-3,3.1-5,3.8c-2,0.7-4.3,1.1-6.8,1.1c-2.7,0-5-0.4-7-1.2c-2-0.8-3.7-2.1-5-4c-1.3-1.9-2.3-4.4-3-7.5
			c-0.7-3.2-1-7.1-1-11.7c0-8.2,1.4-14,4.2-17.4c2.8-3.4,6.8-5,11.8-5c5.3,0,9.3,1.8,12,5.3c2.7,3.5,4,9.6,4,18.3
			C153.1,40.3,152.7,44.1,152,47.1z"/>
	</g>
</g>
</svg>
