<?xml version="1.0" encoding="utf-8"?>
<!-- Generator: Adobe Illustrator 22.1.0, SVG Export Plug-In . SVG Version: 6.00 Build 0)  -->
<svg version="1.1" id="레이어_1" xmlns="http://www.w3.org/2000/svg" xmlns:xlink="http://www.w3.org/1999/xlink" x="0px"
	 y="0px" viewBox="0 0 124 34" style="enable-background:new 0 0 124 34;" xml:space="preserve">
<style type="text/css">
	.st0{fill:#FFFFFF;}
</style>
<g>
	<g>
		<path class="st0" d="M25.7,31.4h3.8V3.5h-3.8V31.4z M19.3,7.9h-4.7c-0.6-0.9-1.4-1.6-2.4-2.2c-0.9-0.5-2-0.8-3.3-0.8
			c-2.4,0-4.1,0.8-5.4,2.5c-1.2,1.7-1.8,3.9-1.8,6.6c0,2.8,0.6,5,1.8,6.7c1.2,1.7,3,2.5,5.4,2.5c1.2,0,2.3-0.2,3.2-0.7
			c0.9-0.5,1.7-1.2,2.3-2.1h4.8v10.2H23V3.5h-3.7V7.9z M12.2,16.3c-0.1,0.7-0.3,1.3-0.6,1.9c-0.3,0.5-0.6,1-1.1,1.3
			c-0.4,0.3-1,0.5-1.6,0.5c-0.7,0-1.2-0.2-1.7-0.5c-0.4-0.3-0.8-0.7-1.1-1.3c-0.3-0.5-0.5-1.2-0.6-1.9s-0.2-1.4-0.2-2.2
			s0.1-1.5,0.2-2.2c0.1-0.7,0.3-1.3,0.6-1.9c0.3-0.5,0.6-1,1.1-1.3c0.4-0.3,1-0.5,1.7-0.5c0.7,0,1.2,0.2,1.6,0.5
			c0.4,0.3,0.8,0.8,1.1,1.3c0.3,0.5,0.5,1.2,0.6,1.9c0.1,0.7,0.2,1.4,0.2,2.2S12.4,15.6,12.2,16.3z M19.3,17.2h-3.5
			c0.1-0.4,0.2-0.9,0.2-1.4c0.1-0.5,0.1-1,0.1-1.6c0-0.5,0-1-0.1-1.5c-0.1-0.5-0.1-1-0.2-1.4h3.5V17.2z M56.7,3.2h-4v14.1
			c0,0.8-0.1,1.6-0.3,2.4c-0.2,0.8-0.6,1.4-1.1,1.8H36.2v3.2h15.3c0.3,0,0.6,0.1,0.7,0.2c0.1,0.1,0.2,0.3,0.2,0.6v8.1h3.7l0.4-9.8
			c0-0.6-0.1-1.2-0.5-1.6c-0.3-0.4-0.8-0.7-1.3-0.7c0.5-0.5,1-1,1.4-1.7c0.4-0.7,0.6-1.5,0.6-2.5v-0.8h4.5v-3.1h-4.5V9.7h4.5V6.5
			h-4.5V3.2z M40.4,18.2c1.1,0,2.1-0.2,3.1-0.5c1-0.3,1.9-0.9,2.6-1.5c0.7-0.7,1.3-1.5,1.8-2.4c0.5-0.9,0.7-2,0.7-3.2
			c0-1.1-0.2-2.2-0.7-3.1c-0.4-0.9-1-1.7-1.8-2.4c-0.7-0.7-1.6-1.2-2.6-1.6c-1-0.4-2-0.5-3.1-0.5c-1.1,0-2.1,0.2-3.1,0.5
			c-1,0.4-1.9,0.9-2.6,1.6c-0.8,0.7-1.4,1.5-1.8,2.4c-0.4,0.9-0.6,2-0.6,3.1c0,1.3,0.2,2.4,0.6,3.3c0.4,1,1,1.8,1.8,2.4
			c0.7,0.7,1.6,1.1,2.6,1.5C38.2,18.1,39.3,18.2,40.4,18.2z M37.3,7.5c0.8-0.9,1.8-1.3,3.1-1.3c1.4,0,2.4,0.4,3.1,1.3
			c0.7,0.9,1.1,1.9,1.1,3.1c0,1.2-0.4,2.3-1.1,3.1c-0.7,0.9-1.8,1.3-3.1,1.3c-1.3,0-2.4-0.4-3.1-1.3c-0.8-0.9-1.1-1.9-1.1-3.1
			C36.2,9.4,36.5,8.4,37.3,7.5z M87.7,3.2h-4v12.8c-1.1,0.7-2.3,1.2-3.7,1.6c-1.4,0.4-3,0.6-4.7,0.6h-1.1v-1.9
			c1.4-0.3,2.7-0.8,3.6-1.8c1-0.9,1.5-2.2,1.5-3.8c0-0.6-0.1-1.2-0.3-1.8c-0.2-0.5-0.4-1-0.7-1.5h3.2V4.5h-8.2
			c0.1-0.3,0.2-0.5,0.3-0.8c0.1-0.3,0.1-0.6,0.1-1c0-0.4,0-0.7-0.1-1.1c-0.1-0.4-0.2-0.7-0.3-1.1l-3.7,0.9c0.1,0.3,0.2,0.6,0.3,0.9
			c0.1,0.3,0.1,0.6,0.2,1v0.7c0,0.1,0,0.2-0.1,0.3c0,0.1,0,0.2-0.1,0.3h-6.8v2.9h2.9c-0.3,0.4-0.6,0.9-0.7,1.5
			c-0.2,0.5-0.2,1.1-0.2,1.8c0,1.6,0.5,2.9,1.5,3.8c1,0.9,2.2,1.5,3.7,1.8v1.9h-7.1v3.2h12.2c1.8,0,3.3-0.2,4.7-0.5
			c1.4-0.3,2.6-0.8,3.6-1.4V20c0,0.8-0.2,1.4-0.5,2c-0.3,0.6-0.7,1-1.3,1.4H67.4v3.2h15.1c0.4,0,0.7,0.1,0.9,0.3
			c0.2,0.2,0.2,0.5,0.2,1v5.8h3.7l0.4-7.6c0-0.7-0.1-1.3-0.4-1.7c-0.3-0.4-0.7-0.7-1.3-0.9c0.5-0.4,0.9-1,1.2-1.6
			c0.3-0.6,0.5-1.3,0.5-2.2v-4.8h4.9v-3.2h-4.9V3.2z M69.7,12.6c-0.5-0.6-0.8-1.2-0.8-2c0-0.7,0.3-1.4,0.8-2
			c0.5-0.6,1.4-0.9,2.5-0.9c1.1,0,1.9,0.3,2.5,0.9c0.6,0.6,0.8,1.3,0.8,2c0,0.7-0.3,1.4-0.8,2c-0.6,0.6-1.4,0.9-2.5,0.9
			C71.1,13.5,70.3,13.2,69.7,12.6z M119.9,3.2h-4v20.4h4V3.2z M106.1,17.9c1-0.4,1.9-0.9,2.6-1.6c0.7-0.7,1.3-1.5,1.8-2.5
			c0.4-1,0.6-2,0.6-3.1c0-1-0.2-2-0.6-3c-0.4-0.9-1-1.8-1.7-2.5c-0.7-0.7-1.6-1.3-2.6-1.7c-1-0.4-2.1-0.6-3.4-0.6
			c-1.2,0-2.3,0.2-3.3,0.6c-1,0.4-1.9,0.9-2.6,1.6c-0.7,0.7-1.3,1.5-1.8,2.5c-0.4,0.9-0.6,2-0.6,3.1c0,1.1,0.2,2,0.6,3
			c0.4,0.9,1,1.8,1.7,2.5c0.7,0.7,1.6,1.3,2.6,1.7c1,0.4,2.2,0.6,3.4,0.6C104,18.5,105.1,18.3,106.1,17.9z M98.5,10.7
			c0-1.2,0.4-2.3,1.1-3.2c0.8-0.9,1.8-1.3,3.2-1.3c1.4,0,2.4,0.4,3.2,1.3c0.8,0.9,1.2,1.9,1.2,3.2c0,1.3-0.4,2.3-1.2,3.2
			c-0.8,0.9-1.8,1.3-3.2,1.3c-1.4,0-2.4-0.4-3.2-1.3C98.9,13.1,98.5,12,98.5,10.7z M120.5,29c-1.3,0.4-2.6,0.7-3.7,0.9
			c-1.2,0.2-2.5,0.2-3.8,0.2h-7.8c-0.3,0-0.6-0.1-0.7-0.2c-0.2-0.2-0.2-0.4-0.2-0.8v-6.9h-4V30c0,1.1,0.3,1.9,1,2.5
			c0.7,0.5,1.6,0.8,2.9,0.8h8.9c0.9,0,1.7,0,2.4-0.1c0.7,0,1.4-0.1,2-0.2c0.6-0.1,1.3-0.3,1.9-0.4c0.6-0.2,1.3-0.4,2.1-0.6L120.5,29
			z"/>
	</g>
</g>
</svg>
