<?xml version="1.0" encoding="utf-8"?>
<!-- Generator: Adobe Illustrator 22.1.0, SVG Export Plug-In . SVG Version: 6.00 Build 0)  -->
<svg version="1.1" id="Layer_1" xmlns="http://www.w3.org/2000/svg" xmlns:xlink="http://www.w3.org/1999/xlink" x="0px" y="0px"
	 viewBox="0 0 209.8 107.7" style="enable-background:new 0 0 209.8 107.7;" xml:space="preserve">
<style type="text/css">
	.st0{fill:none;stroke:#315901;stroke-width:5;stroke-linecap:round;stroke-linejoin:round;stroke-miterlimit:10;}
	.st1{fill:#333333;}
</style>
<path class="st0" d="M100.5,61.5c-13.7-2.1-24.1-13.9-24.1-28.1c0-15.7,12.7-28.5,28.5-28.5c15.7,0,28.5,12.7,28.5,28.5
	c0,12.4-13.2,28.6-19.6,25.1c-3.4-1.9-5.1-5.1-3.4-9.4c1.2-3,4.5-7.5,7-10.4c3.7-4.3,5.4-10.1,0-13.7c-5.8-3.9-11.9,5.1-11.9,5.1
	S99.7,22,93.6,25c-6.9,3.3-1.6,11.7,0,13.7c2.5,2.9,5.9,5.8,8.4,7.8"/>
<g>
	<g>
		<path class="st1" d="M19.4,88.4c-1,3.1-2,6.3-2.6,9.3h-0.1c-0.7-3.1-1.5-6.2-2.5-9.4l-3.5-11.7H5.5l8.3,25.8h5.4l8.9-25.8h-5
			L19.4,88.4z M34.8,102.4h4.7V76.6h-4.7V102.4z M57.7,87.4c-3.4-1.3-4.9-2.3-4.9-4.3c0-1.5,1.3-3.1,4.3-3.1c2.4,0,4.2,0.7,5.1,1.2
			l1.1-3.8c-1.3-0.7-3.4-1.3-6.2-1.3c-5.6,0-9.1,3.2-9.1,7.4c0,3.7,2.7,6,7,7.5c3.3,1.2,4.6,2.3,4.6,4.3c0,2.1-1.7,3.5-4.7,3.5
			c-2.4,0-4.7-0.8-6.2-1.6l-1,3.9c1.4,0.8,4.3,1.6,7,1.6c6.7,0,9.8-3.6,9.8-7.7C64.4,91.3,62.2,89.1,57.7,87.4z M72.5,102.4h4.7
			V76.6h-4.7V102.4z M84,80.5h7.4v21.9h4.7V80.5h7.4v-3.9H84V80.5z M127.3,93.2c0,4.5-1.6,5.7-4.3,5.7c-1.1,0-2.1-0.2-2.9-0.5
			l-0.6,3.8c1,0.4,2.6,0.6,3.9,0.6c5.1,0,8.6-2.4,8.6-9.5V76.6h-4.7V93.2z M145.7,90.9h9.7v-3.8h-9.7v-6.7H156v-3.9h-15v25.8h15.6
			v-3.9h-10.9L145.7,90.9L145.7,90.9z M170.4,93.2c0,4.5-1.6,5.7-4.3,5.7c-1.1,0-2.1-0.2-2.9-0.5l-0.6,3.8c1,0.4,2.6,0.6,3.9,0.6
			c5.1,0,8.6-2.4,8.6-9.5V76.6h-4.7V93.2z M199.5,76.6v15.1c0,5.1-2,7.4-5.4,7.4c-3.2,0-5.3-2.3-5.3-7.4V76.6h-4.7v14.8
			c0,8.1,3.9,11.5,9.8,11.5c6.2,0,10.3-3.5,10.3-11.5V76.6H199.5z"/>
	</g>
</g>
</svg>
