<?xml version="1.0" encoding="utf-8"?>
<!-- Generator: Adobe Illustrator 22.1.0, SVG Export Plug-In . SVG Version: 6.00 Build 0)  -->
<svg version="1.1" id="Layer_1" xmlns="http://www.w3.org/2000/svg" xmlns:xlink="http://www.w3.org/1999/xlink" x="0px" y="0px"
	 viewBox="0 0 283.5 68" style="enable-background:new 0 0 283.5 68;" xml:space="preserve">
<style type="text/css">
	.st0{fill:none;stroke:#EF8200;stroke-width:5;stroke-linecap:round;stroke-linejoin:round;stroke-miterlimit:10;}
	.st1{fill:#333333;}
	.st2{fill:none;}
</style>
<path class="st0" d="M31.3,62.3C17.6,60.2,7.2,48.4,7.2,34.2c0-15.7,12.7-28.5,28.5-28.5c15.7,0,28.5,12.7,28.5,28.5
	c0,12.4-13.2,28.6-19.6,25.1c-3.4-1.9-5.1-5.1-3.4-9.4c1.2-3,4.5-7.5,7-10.4c3.7-4.3,5.4-10.1,0-13.7c-5.8-3.9-11.9,5.1-11.9,5.1
	s-5.8-8.1-11.9-5.1c-6.9,3.3-1.6,11.7,0,13.7c2.5,2.9,5.9,5.8,8.4,7.8"/>
<g>
	<g>
		<path class="st1" d="M91.5,32c-1,3.1-2,6.3-2.6,9.3h-0.1c-0.7-3.1-1.5-6.2-2.5-9.4l-3.5-11.7h-5.1L85.9,46h5.4l8.9-25.8h-5
			L91.5,32z M106.9,46h4.7V20.2h-4.7V46z M129.8,31c-3.4-1.3-4.9-2.3-4.9-4.3c0-1.5,1.3-3.1,4.3-3.1c2.4,0,4.2,0.7,5.1,1.2l1.1-3.8
			c-1.3-0.7-3.4-1.3-6.2-1.3c-5.6,0-9.1,3.2-9.1,7.4c0,3.7,2.7,6,7,7.5c3.3,1.2,4.6,2.3,4.6,4.3c0,2.1-1.7,3.5-4.7,3.5
			c-2.4,0-4.7-0.8-6.2-1.6l-1,3.9c1.4,0.8,4.3,1.6,7,1.6c6.7,0,9.8-3.6,9.8-7.7C136.4,34.9,134.3,32.7,129.8,31z M144.5,46h4.7V20.2
			h-4.7V46z M156.1,24.1h7.4V46h4.7V24.1h7.4v-3.9h-19.5V24.1z M199.3,36.8c0,4.5-1.6,5.7-4.3,5.7c-1.1,0-2.1-0.2-2.9-0.5l-0.6,3.8
			c1,0.4,2.6,0.6,3.9,0.6c5.1,0,8.6-2.4,8.6-9.5V20.2h-4.7V36.8z M217.7,34.6h9.7v-3.8h-9.7v-6.7H228v-3.9h-15V46h15.6v-3.9h-10.9
			V34.6z M242.5,36.8c0,4.5-1.6,5.7-4.3,5.7c-1.1,0-2.1-0.2-2.9-0.5l-0.6,3.8c1,0.4,2.6,0.6,3.9,0.6c5.1,0,8.6-2.4,8.6-9.5V20.2
			h-4.7V36.8z M271.6,20.2v15.1c0,5.1-2,7.4-5.4,7.4c-3.2,0-5.3-2.3-5.3-7.4V20.2h-4.7V35c0,8.1,3.9,11.5,9.8,11.5
			c6.2,0,10.3-3.5,10.3-11.5V20.2H271.6z"/>
	</g>
</g>
<g>
	<path class="st2" d="M-1181.5-226c-2.4,7.4-4.6,14.8-6.2,22h-0.2c-1.6-7.4-3.6-14.5-5.9-22.1l-8.3-27.5h-12.1l19.6,60.7h12.7
		l21-60.7h-11.8L-1181.5-226z M-1145.3-193.1h11.1v-60.7h-11.1V-193.1z M-1091.5-228.4c-8.1-3.1-11.6-5.3-11.6-10
		c0-3.5,3.1-7.3,10.1-7.3c5.7,0,9.9,1.7,12.1,2.9l2.7-8.9c-3.1-1.6-8-3.1-14.6-3.1c-13.1,0-21.4,7.6-21.4,17.5
		c0,8.7,6.4,14,16.4,17.6c7.7,2.8,10.8,5.5,10.8,10.1c0,4.9-4,8.3-11.1,8.3c-5.7,0-11.1-1.8-14.7-3.9l-2.4,9.2
		c3.3,2,10,3.8,16.4,3.8c15.7,0,23-8.5,23-18.2C-1075.8-219.1-1081-224.4-1091.5-228.4z M-1056.8-193.1h11.1v-60.7h-11.1V-193.1z
		 M-1029.8-244.5h17.3v51.4h11.1v-51.4h17.5v-9.3h-45.8V-244.5z M-928.1-214.8c0,10.5-3.9,13.4-10.2,13.4c-2.6,0-5-0.5-6.8-1.1
		l-1.3,8.9c2.3,0.9,6.2,1.4,9.3,1.4c12.1,0,20.2-5.6,20.2-22.3v-39.3h-11.1V-214.8z M-884.9-220h22.9v-9h-22.9v-15.7h24.2v-9.1
		h-35.3v60.7h36.6v-9.1h-25.6V-220z M-826.7-214.8c0,10.5-3.9,13.4-10.2,13.4c-2.6,0-5-0.5-6.8-1.1l-1.3,8.9
		c2.3,0.9,6.2,1.4,9.3,1.4c12.1,0,20.2-5.6,20.2-22.3v-39.3h-11.1V-214.8z M-758.3-253.7v35.4c0,11.9-4.8,17.4-12.8,17.4
		c-7.5,0-12.4-5.5-12.4-17.4v-35.4h-11.1v34.7c0,19.1,9.1,26.9,23.1,26.9c14.6,0,24.2-8.3,24.2-27v-34.6H-758.3z"/>
</g>
</svg>
