<?xml version="1.0" encoding="utf-8"?>
<!-- Generator: Adobe Illustrator 22.1.0, SVG Export Plug-In . SVG Version: 6.00 Build 0)  -->
<svg version="1.1" id="격리_모드" xmlns="http://www.w3.org/2000/svg" xmlns:xlink="http://www.w3.org/1999/xlink" x="0px"
	 y="0px" viewBox="0 0 55 65" style="enable-background:new 0 0 55 65;" xml:space="preserve">
<g>
	<circle cx="18.1" cy="9.3" r="4.6"/>
	<path d="M43,38.6c0,0-1.8-3.3-5-4l-10-0.3c0,0-2.5-0.3-2.8-3.3l-0.2-2.5h13.7c1.4,0,2.5-1.1,2.5-2.5c0-1.4-1.1-2.5-2.5-2.5h-14
		l-0.3-4c0,0-0.8-4-4.8-3.7c0,0-4.8,0-4.8,6l1.3,13.3c0,0,0.5,5.3,5.8,5.3l12.8,0.3c0,0,2.8-0.3,3.8,2.2L45,56.6h6L43,38.6z"/>
	<path d="M34.2,52.1c-2.7,2.6-6.2,4.1-10,4.1c-7.9,0-14.3-6.4-14.3-14.3c0-2.9,0.9-5.8,2.6-8.2c0.9-1.4,0.6-3.2-0.7-4.2
		c-1.4-0.9-3.2-0.6-4.2,0.7C5.3,33.7,4,37.7,4,41.9c0,11.2,9.1,20.3,20.3,20.3c5.3,0,10.4-2.1,14.2-5.8c1.2-1.2,1.2-3.1,0-4.2
		C37.3,50.9,35.4,50.9,34.2,52.1z"/>
</g>
</svg>
